<svg id="svg" version="1.1" xmlns="http://www.w3.org/2000/svg" xmlns:xlink="http://www.w3.org/1999/xlink" width="400" height="333.7748344370861" viewBox="0, 0, 400,333.7748344370861"><g id="svgg"><path id="path0" d="M173.623 1.627 C 173.623 1.787,171.669 2.026,169.281 2.158 C 166.893 2.290,165.012 2.515,165.101 2.659 C 165.240 2.884,160.205 3.547,159.516 3.394 C 159.378 3.364,159.265 3.473,159.265 3.636 C 159.265 3.800,158.777 4.008,158.180 4.098 C 156.246 4.391,153.093 5.151,152.922 5.365 C 152.830 5.480,152.003 5.674,151.085 5.796 C 150.167 5.919,149.366 6.167,149.304 6.348 C 149.243 6.530,148.772 6.678,148.257 6.678 C 147.743 6.678,146.891 6.902,146.365 7.177 C 145.839 7.451,145.071 7.676,144.658 7.677 C 144.245 7.679,143.907 7.818,143.907 7.987 C 143.907 8.156,143.418 8.399,142.821 8.526 C 142.225 8.654,141.586 8.872,141.402 9.010 C 141.219 9.149,140.505 9.363,139.816 9.487 C 139.128 9.612,138.564 9.857,138.564 10.032 C 138.564 10.207,138.189 10.351,137.730 10.351 C 137.270 10.351,136.895 10.489,136.895 10.658 C 136.895 10.827,136.444 11.064,135.893 11.185 C 135.342 11.306,134.891 11.544,134.891 11.713 C 134.891 11.882,134.577 12.020,134.192 12.020 C 133.471 12.020,131.472 12.993,131.274 13.441 C 131.212 13.580,131.007 13.598,130.819 13.482 C 130.630 13.365,130.380 13.410,130.263 13.581 C 130.009 13.952,127.766 15.025,127.245 15.025 C 127.043 15.025,126.878 15.158,126.878 15.320 C 126.878 15.606,125.630 16.136,125.125 16.063 C 124.987 16.043,124.875 16.177,124.875 16.361 C 124.875 16.544,124.649 16.694,124.374 16.694 C 124.098 16.694,123.873 16.845,123.873 17.028 C 123.873 17.212,123.568 17.362,123.195 17.362 C 122.822 17.362,122.434 17.578,122.332 17.843 C 122.231 18.107,121.710 18.419,121.175 18.537 C 120.639 18.655,120.013 19.002,119.783 19.309 C 119.554 19.615,118.614 20.242,117.696 20.701 C 116.778 21.160,115.952 21.622,115.860 21.728 C 115.768 21.834,115.205 22.204,114.608 22.551 C 114.011 22.898,113.523 23.300,113.523 23.444 C 113.523 23.588,113.292 23.706,113.011 23.706 C 112.730 23.706,112.413 23.932,112.308 24.207 C 112.202 24.482,111.826 24.708,111.473 24.708 C 111.120 24.708,110.744 24.933,110.638 25.209 C 110.533 25.484,110.292 25.710,110.103 25.710 C 109.914 25.710,109.411 26.085,108.986 26.544 C 108.560 27.003,108.001 27.379,107.742 27.379 C 107.484 27.379,106.990 27.755,106.645 28.214 C 106.301 28.673,105.892 29.048,105.737 29.048 C 105.403 29.048,102.742 31.131,101.371 32.465 C 100.840 32.982,100.338 33.337,100.255 33.255 C 100.172 33.172,99.315 33.919,98.350 34.916 C 97.384 35.913,96.489 36.728,96.360 36.728 C 95.839 36.728,85.098 47.871,84.130 49.416 C 83.958 49.691,83.814 49.784,83.811 49.621 C 83.809 49.459,83.506 49.708,83.139 50.175 C 82.771 50.642,82.471 51.106,82.471 51.208 C 82.471 51.309,81.907 51.987,81.219 52.714 C 79.702 54.316,78.013 56.391,77.829 56.878 C 77.755 57.074,77.342 57.615,76.911 58.080 C 76.480 58.544,76.127 59.114,76.127 59.346 C 76.127 59.577,76.006 59.766,75.857 59.766 C 75.597 59.766,73.456 62.615,73.456 62.962 C 73.456 63.157,72.958 63.779,71.870 64.942 C 71.457 65.384,71.119 65.892,71.119 66.071 C 71.119 66.250,70.931 66.598,70.701 66.844 C 70.472 67.089,69.916 67.992,69.467 68.850 C 69.018 69.708,68.530 70.335,68.382 70.243 C 68.234 70.152,68.114 70.387,68.114 70.765 C 68.114 71.143,67.963 71.452,67.780 71.452 C 67.596 71.452,67.442 71.640,67.438 71.870 C 67.434 72.099,67.137 72.663,66.778 73.122 C 66.419 73.581,66.122 74.220,66.118 74.541 C 66.114 74.862,65.960 75.125,65.776 75.125 C 65.593 75.125,65.442 75.335,65.442 75.590 C 65.442 75.846,65.217 76.142,64.942 76.248 C 64.666 76.353,64.441 76.658,64.441 76.924 C 64.441 77.489,63.388 79.581,63.022 79.744 C 62.884 79.805,62.771 80.068,62.771 80.328 C 62.771 80.588,62.628 80.801,62.453 80.801 C 62.277 80.801,62.035 81.327,61.915 81.970 C 61.794 82.613,61.574 83.139,61.425 83.139 C 61.276 83.139,61.056 83.589,60.935 84.140 C 60.814 84.691,60.589 85.142,60.434 85.142 C 60.280 85.142,60.054 85.593,59.933 86.144 C 59.812 86.694,59.575 87.145,59.406 87.145 C 59.237 87.145,59.098 87.446,59.098 87.813 C 59.098 88.180,58.965 88.481,58.802 88.481 C 58.639 88.481,58.406 89.007,58.286 89.649 C 58.165 90.292,57.936 90.818,57.777 90.818 C 57.618 90.818,57.386 91.419,57.262 92.154 C 57.138 92.888,56.936 93.489,56.813 93.489 C 56.511 93.489,55.824 95.089,55.560 96.408 C 55.441 97.000,55.229 97.414,55.089 97.327 C 54.948 97.240,54.726 97.881,54.596 98.751 C 54.465 99.622,54.250 100.409,54.118 100.501 C 53.747 100.758,52.755 103.437,52.755 104.180 C 52.755 104.544,52.622 104.841,52.459 104.841 C 52.297 104.841,52.061 105.668,51.934 106.678 C 51.808 107.688,51.576 108.514,51.419 108.514 C 51.262 108.514,51.030 109.341,50.904 110.351 C 50.778 111.361,50.541 112.187,50.379 112.187 C 50.216 112.187,50.083 112.629,50.083 113.169 C 50.083 113.709,49.948 114.235,49.782 114.337 C 49.617 114.439,49.377 115.425,49.249 116.527 C 49.121 117.629,48.896 118.531,48.750 118.531 C 48.603 118.531,48.377 119.733,48.247 121.202 C 48.117 122.671,47.876 123.873,47.711 123.873 C 47.547 123.873,47.412 124.449,47.412 125.153 C 47.412 125.857,47.308 126.537,47.180 126.665 C 46.874 126.972,46.804 127.464,46.537 131.219 C 46.412 132.963,46.145 134.498,45.943 134.629 C 45.423 134.966,45.424 167.873,45.945 168.209 C 46.147 168.340,46.419 170.023,46.548 171.953 C 46.677 173.881,46.924 175.509,47.098 175.570 C 47.271 175.632,47.412 176.420,47.412 177.323 C 47.412 178.226,47.547 178.965,47.712 178.965 C 47.877 178.965,48.119 180.054,48.250 181.386 C 48.381 182.717,48.605 183.957,48.748 184.140 C 48.890 184.324,49.113 185.263,49.243 186.227 C 49.372 187.191,49.614 188.063,49.781 188.166 C 49.947 188.269,50.083 188.870,50.083 189.502 C 50.083 190.134,50.219 190.651,50.385 190.651 C 50.550 190.651,50.790 191.553,50.918 192.654 C 51.046 193.756,51.272 194.658,51.420 194.658 C 51.569 194.658,51.794 195.409,51.920 196.327 C 52.046 197.245,52.286 197.997,52.452 197.997 C 52.618 197.997,52.755 198.372,52.755 198.831 C 52.755 199.290,52.915 199.666,53.111 199.666 C 53.315 199.666,53.377 199.951,53.255 200.334 C 53.134 200.717,53.195 201.002,53.400 201.002 C 53.596 201.002,53.756 201.377,53.756 201.836 C 53.756 202.295,53.892 202.671,54.059 202.671 C 54.225 202.671,54.465 203.423,54.591 204.341 C 54.717 205.259,54.940 205.937,55.086 205.847 C 55.232 205.757,55.432 206.095,55.530 206.598 C 55.806 208.000,56.564 210.017,56.816 210.017 C 56.941 210.017,57.143 210.478,57.267 211.041 C 57.391 211.604,57.702 212.468,57.959 212.961 C 58.216 213.453,58.428 214.119,58.429 214.441 C 58.430 214.762,58.581 215.025,58.765 215.025 C 58.948 215.025,59.098 215.250,59.098 215.526 C 59.098 215.801,59.236 216.027,59.403 216.027 C 59.571 216.027,59.809 216.628,59.933 217.362 C 60.057 218.097,60.284 218.698,60.437 218.698 C 60.590 218.698,60.814 219.149,60.935 219.699 C 61.056 220.250,61.281 220.701,61.436 220.701 C 61.590 220.701,61.816 221.152,61.937 221.703 C 62.058 222.254,62.259 222.705,62.385 222.705 C 62.618 222.705,63.794 225.202,63.744 225.589 C 63.728 225.706,63.841 225.894,63.995 226.006 C 64.375 226.285,65.085 227.419,65.324 228.130 C 65.432 228.452,65.637 228.715,65.779 228.715 C 65.921 228.715,66.141 229.126,66.267 229.629 C 66.394 230.133,66.603 230.621,66.732 230.715 C 67.049 230.944,69.115 234.226,69.115 234.500 C 69.115 234.619,69.342 234.982,69.619 235.305 C 69.896 235.628,70.121 236.006,70.120 236.144 C 70.118 236.281,70.380 236.672,70.701 237.012 C 71.809 238.183,72.387 238.996,72.610 239.697 C 72.733 240.084,72.973 240.401,73.144 240.401 C 73.316 240.401,73.456 240.615,73.456 240.877 C 73.456 241.139,73.831 241.649,74.290 242.010 C 74.750 242.372,75.125 242.811,75.125 242.988 C 75.125 243.164,75.463 243.686,75.876 244.148 C 77.163 245.587,77.797 246.411,77.618 246.411 C 77.431 246.411,79.090 248.330,80.551 249.803 C 81.056 250.312,81.469 250.874,81.469 251.052 C 81.469 251.473,91.815 261.805,93.038 262.606 C 93.552 262.943,94.127 263.346,94.315 263.502 C 94.504 263.658,95.019 264.083,95.460 264.447 C 95.901 264.811,96.396 265.109,96.559 265.109 C 96.722 265.109,97.185 265.415,97.587 265.789 C 97.988 266.164,98.658 266.556,99.075 266.660 C 99.492 266.765,99.833 266.978,99.833 267.133 C 99.833 267.288,100.358 267.514,100.999 267.634 C 101.640 267.754,102.082 267.987,101.981 268.150 C 101.880 268.314,102.009 268.447,102.268 268.447 C 102.527 268.447,103.412 268.806,104.236 269.244 C 105.059 269.681,106.209 270.144,106.790 270.272 C 107.371 270.399,107.846 270.625,107.846 270.773 C 107.846 270.921,108.523 271.144,109.349 271.268 C 110.175 271.392,110.851 271.634,110.851 271.807 C 110.851 271.979,111.227 272.120,111.686 272.120 C 112.145 272.120,112.521 272.270,112.521 272.454 C 112.521 272.638,112.634 272.760,112.771 272.726 C 113.308 272.592,116.716 273.214,117.086 273.512 C 117.301 273.686,119.367 273.917,121.677 274.027 C 123.987 274.136,125.876 274.352,125.876 274.508 C 125.876 274.664,126.928 274.791,128.214 274.791 C 129.499 274.791,130.551 274.664,130.551 274.509 C 130.551 274.353,132.383 274.128,134.622 274.007 C 136.861 273.887,138.776 273.659,138.879 273.500 C 138.981 273.342,139.929 273.106,140.985 272.976 C 142.041 272.846,142.905 272.600,142.905 272.430 C 142.905 272.260,143.205 272.120,143.573 272.120 C 143.940 272.120,144.240 271.984,144.240 271.818 C 144.240 271.651,144.992 271.412,145.910 271.285 C 146.828 271.159,147.579 270.936,147.579 270.790 C 147.579 270.643,147.991 270.420,148.494 270.294 C 148.997 270.167,149.486 269.962,149.579 269.838 C 149.673 269.714,150.764 269.111,152.003 268.497 C 153.243 267.884,154.257 267.246,154.257 267.080 C 154.257 266.914,154.562 266.778,154.935 266.778 C 155.308 266.778,155.700 266.553,155.806 266.277 C 155.912 266.002,156.143 265.776,156.320 265.776 C 156.497 265.776,156.851 265.588,157.107 265.359 C 158.158 264.417,158.583 264.106,158.834 264.098 C 158.979 264.092,159.537 263.642,160.072 263.096 C 160.608 262.550,161.168 262.104,161.318 262.104 C 161.642 262.104,168.614 255.033,168.614 254.705 C 168.614 254.579,169.215 253.870,169.950 253.128 C 170.684 252.386,171.285 251.692,171.285 251.585 C 171.285 251.381,171.398 251.233,172.870 249.506 C 173.376 248.913,173.959 248.226,174.166 247.978 C 174.373 247.731,174.646 247.201,174.773 246.802 C 174.900 246.403,175.143 246.077,175.315 246.077 C 175.486 246.077,175.626 245.851,175.626 245.576 C 175.626 245.301,175.773 245.075,175.954 245.075 C 176.134 245.075,176.375 244.699,176.491 244.240 C 176.606 243.781,176.822 243.406,176.971 243.406 C 177.120 243.406,177.341 242.955,177.462 242.404 C 177.583 241.853,177.821 241.402,177.990 241.402 C 178.159 241.402,178.297 241.177,178.297 240.902 C 178.297 240.626,178.456 240.401,178.651 240.401 C 178.845 240.401,178.918 240.261,178.812 240.090 C 178.707 239.919,178.773 239.685,178.959 239.569 C 179.184 239.430,179.299 241.282,179.299 245.055 C 179.299 248.630,179.423 250.751,179.633 250.751 C 179.845 250.751,179.967 253.406,179.967 258.048 C 179.967 262.061,180.063 266.268,180.181 267.397 L 180.396 269.449 181.493 269.449 C 182.572 269.449,182.593 269.419,182.819 267.613 C 182.945 266.603,183.170 265.776,183.317 265.776 C 183.465 265.776,183.691 264.800,183.819 263.606 C 183.946 262.412,184.184 261.436,184.346 261.436 C 184.508 261.436,184.641 260.985,184.641 260.434 C 184.641 259.883,184.774 259.432,184.936 259.432 C 185.098 259.432,185.336 258.456,185.463 257.262 C 185.591 256.068,185.815 255.092,185.960 255.092 C 186.105 255.092,186.328 254.040,186.455 252.755 C 186.581 251.469,186.826 250.417,186.999 250.417 C 187.171 250.417,187.312 249.816,187.312 249.082 C 187.312 248.347,187.447 247.746,187.611 247.746 C 187.776 247.746,188.017 246.544,188.147 245.075 C 188.277 243.606,188.499 242.404,188.639 242.404 C 188.780 242.404,188.999 241.352,189.126 240.067 C 189.252 238.781,189.485 237.730,189.643 237.730 C 189.801 237.730,190.035 236.753,190.163 235.559 C 190.290 234.366,190.528 233.389,190.690 233.389 C 190.852 233.389,190.985 232.788,190.985 232.053 C 190.985 231.319,191.135 230.718,191.319 230.718 C 191.528 230.718,191.653 228.610,191.653 225.061 C 191.653 221.651,191.520 219.323,191.319 219.199 C 191.135 219.085,190.985 218.400,190.985 217.676 C 190.985 216.953,190.854 216.361,190.694 216.361 C 190.534 216.361,190.301 215.459,190.177 214.357 C 190.052 213.255,189.827 212.354,189.677 212.354 C 189.526 212.354,189.318 211.833,189.215 211.196 C 188.814 208.727,188.379 208.577,182.412 208.850 C 179.506 208.983,176.978 209.208,176.795 209.349 C 176.611 209.490,174.093 209.714,171.200 209.847 C 168.306 209.979,165.856 210.222,165.755 210.386 C 165.653 210.550,164.377 210.684,162.919 210.684 C 161.460 210.684,160.267 210.818,160.267 210.981 C 160.267 211.144,158.162 211.386,155.589 211.519 C 153.016 211.653,150.840 211.877,150.753 212.017 C 150.666 212.158,148.827 212.382,146.666 212.515 C 144.506 212.648,142.588 212.878,142.404 213.025 C 142.220 213.173,141.018 213.372,139.733 213.467 C 138.447 213.563,136.870 213.729,136.227 213.838 C 135.584 213.946,134.243 214.123,133.245 214.232 C 129.946 214.592,129.146 217.762,132.304 217.965 C 133.176 218.021,133.890 218.184,133.890 218.327 C 133.890 218.470,134.078 218.595,134.307 218.606 C 138.081 218.786,141.903 219.192,141.903 219.415 C 141.903 219.571,142.739 219.699,143.762 219.699 C 144.784 219.699,145.880 219.839,146.199 220.009 C 146.517 220.180,148.611 220.426,150.851 220.558 C 153.092 220.689,154.925 220.910,154.925 221.051 C 154.925 221.191,157.182 221.414,159.940 221.547 C 162.699 221.680,165.036 221.920,165.135 222.080 C 165.234 222.240,166.043 222.371,166.933 222.371 C 168.614 222.371,168.910 223.020,167.803 224.279 C 166.834 225.380,166.611 225.710,166.611 226.043 C 166.611 226.384,166.355 226.757,165.359 227.868 C 165.129 228.124,164.942 228.500,164.942 228.704 C 164.942 229.117,163.581 231.156,163.189 231.330 C 163.051 231.391,162.938 231.654,162.938 231.914 C 162.938 232.174,162.798 232.387,162.627 232.387 C 162.456 232.387,162.213 232.710,162.088 233.103 C 161.828 233.924,153.471 242.404,152.923 242.404 C 152.724 242.404,152.003 242.977,151.322 243.678 C 150.055 244.981,147.913 246.607,147.913 246.266 C 147.913 246.162,147.613 246.340,147.245 246.661 C 146.878 246.982,146.277 247.508,145.910 247.830 C 145.543 248.151,145.129 248.419,144.992 248.425 C 144.854 248.432,144.140 248.727,143.406 249.082 C 142.671 249.437,141.912 249.732,141.719 249.738 C 141.187 249.755,139.572 250.555,139.569 250.802 C 139.567 250.922,138.664 251.124,137.562 251.252 C 136.460 251.380,135.474 251.620,135.372 251.786 C 135.134 252.170,125.209 252.184,125.209 251.800 C 125.209 251.642,124.401 251.429,123.413 251.327 C 122.426 251.225,121.299 250.979,120.909 250.780 C 120.519 250.580,119.906 250.270,119.547 250.090 C 119.188 249.910,118.286 249.665,117.544 249.546 C 116.801 249.427,116.194 249.211,116.194 249.066 C 116.194 248.920,115.743 248.702,115.192 248.581 C 114.641 248.460,114.190 248.256,114.190 248.127 C 114.190 247.998,113.439 247.602,112.521 247.245 C 111.603 246.889,110.851 246.480,110.851 246.337 C 110.851 246.194,110.621 246.077,110.340 246.077 C 110.059 246.077,109.742 245.851,109.637 245.576 C 109.531 245.301,109.212 245.075,108.928 245.075 C 108.644 245.075,107.871 244.494,107.211 243.784 C 106.550 243.074,105.672 242.387,105.259 242.259 C 104.846 242.130,104.508 241.897,104.508 241.739 C 104.508 241.582,104.059 241.029,103.511 240.510 C 101.932 239.015,100.699 237.791,100.300 237.325 C 100.098 237.088,99.497 236.489,98.965 235.992 C 97.667 234.781,96.160 233.137,96.160 232.931 C 96.160 232.839,95.334 231.951,94.324 230.957 C 93.314 229.963,92.487 229.032,92.487 228.889 C 92.487 228.610,91.001 226.769,89.232 224.857 C 88.635 224.212,88.147 223.575,88.147 223.441 C 88.147 223.308,87.801 222.824,87.378 222.367 C 86.956 221.910,86.510 221.273,86.387 220.952 C 86.265 220.630,86.010 220.367,85.820 220.367 C 85.631 220.367,85.476 220.062,85.476 219.689 C 85.476 219.316,85.264 218.929,85.005 218.830 C 84.746 218.731,84.443 218.285,84.331 217.839 C 84.219 217.393,83.980 217.028,83.800 217.028 C 83.620 217.028,83.472 216.803,83.472 216.528 C 83.472 216.252,83.325 216.027,83.145 216.027 C 82.965 216.027,82.723 215.651,82.608 215.192 C 82.493 214.733,82.261 214.357,82.092 214.357 C 81.924 214.357,81.642 213.978,81.466 213.514 C 81.290 213.050,80.918 212.583,80.639 212.477 C 80.361 212.370,80.134 212.140,80.134 211.966 C 80.134 211.342,78.775 208.681,78.456 208.681 C 78.277 208.681,78.130 208.393,78.130 208.041 C 78.130 207.689,78.018 207.351,77.880 207.290 C 77.571 207.153,76.127 204.234,76.127 203.748 C 76.127 203.553,76.011 203.344,75.870 203.283 C 75.550 203.144,73.456 198.886,73.456 198.373 C 73.456 198.166,73.322 197.997,73.158 197.997 C 72.994 197.997,72.761 197.583,72.639 197.078 C 72.335 195.823,71.669 194.324,71.414 194.324 C 71.298 194.324,71.108 193.723,70.990 192.988 C 70.873 192.254,70.637 191.653,70.467 191.653 C 70.297 191.653,70.056 190.977,69.932 190.150 C 69.809 189.324,69.574 188.648,69.411 188.648 C 69.248 188.648,69.115 188.347,69.115 187.980 C 69.115 187.613,68.974 187.312,68.802 187.312 C 68.629 187.312,68.387 186.636,68.263 185.810 C 68.139 184.983,67.922 184.307,67.780 184.307 C 67.639 184.307,67.420 183.483,67.294 182.476 C 67.168 181.469,66.936 180.565,66.778 180.467 C 66.620 180.370,66.388 179.464,66.261 178.454 C 66.135 177.445,65.899 176.537,65.737 176.437 C 65.575 176.336,65.442 175.821,65.442 175.292 C 65.442 174.763,65.301 174.242,65.128 174.136 C 64.955 174.029,64.710 172.893,64.584 171.612 C 64.458 170.330,64.235 169.282,64.089 169.282 C 63.943 169.282,63.717 167.927,63.587 166.270 C 63.458 164.613,63.221 163.177,63.062 163.078 C 62.902 162.980,62.771 162.019,62.771 160.943 C 62.771 159.675,62.624 158.938,62.354 158.848 C 62.029 158.740,61.937 155.600,61.937 144.647 C 61.937 133.842,62.033 130.488,62.354 130.167 C 62.592 129.929,62.771 128.917,62.771 127.813 C 62.771 126.748,62.904 125.876,63.065 125.876 C 63.227 125.876,63.467 124.449,63.597 122.705 C 63.728 120.960,63.952 119.533,64.095 119.533 C 64.238 119.533,64.458 118.484,64.584 117.203 C 64.710 115.922,64.955 114.786,65.128 114.679 C 65.301 114.572,65.442 113.977,65.442 113.356 C 65.442 112.735,65.578 112.143,65.743 112.040 C 65.909 111.938,66.149 110.952,66.277 109.850 C 66.405 108.747,66.637 107.767,66.792 107.671 C 66.946 107.575,67.174 106.824,67.297 106.002 C 67.421 105.180,67.637 104.508,67.779 104.508 C 67.921 104.508,68.140 103.681,68.266 102.671 C 68.392 101.661,68.635 100.835,68.805 100.835 C 68.976 100.835,69.115 100.543,69.115 100.187 C 69.115 99.830,69.248 99.456,69.411 99.356 C 69.574 99.255,69.805 98.651,69.925 98.014 C 70.044 97.377,70.361 96.437,70.628 95.924 C 70.896 95.411,71.115 94.654,71.116 94.240 C 71.118 93.827,71.231 93.488,71.369 93.487 C 71.641 93.484,72.447 91.903,72.465 91.336 C 72.472 91.143,72.767 90.384,73.122 89.649 C 73.477 88.915,73.772 88.051,73.778 87.730 C 73.785 87.408,73.940 87.145,74.124 87.145 C 74.307 87.145,74.457 86.920,74.457 86.644 C 74.457 86.369,74.591 86.144,74.755 86.144 C 74.919 86.144,75.152 85.749,75.273 85.267 C 75.503 84.352,77.479 80.089,77.808 79.800 C 78.107 79.537,79.132 77.235,79.132 76.828 C 79.132 76.626,79.270 76.461,79.439 76.461 C 79.608 76.461,79.846 76.010,79.967 75.459 C 80.088 74.908,80.301 74.457,80.441 74.457 C 80.582 74.457,80.983 73.896,81.333 73.210 C 81.683 72.525,82.158 71.763,82.387 71.517 C 82.617 71.272,82.805 70.856,82.805 70.594 C 82.805 70.332,82.937 70.117,83.100 70.117 C 83.262 70.117,83.491 69.854,83.609 69.533 C 84.005 68.452,84.842 67.112,85.121 67.112 C 85.273 67.112,85.486 66.849,85.594 66.528 C 85.808 65.891,86.521 64.708,86.851 64.441 C 86.965 64.349,87.541 63.485,88.132 62.521 C 88.723 61.557,89.343 60.768,89.511 60.768 C 89.679 60.768,89.816 60.535,89.816 60.251 C 89.816 59.967,90.192 59.386,90.651 58.961 C 91.110 58.535,91.486 58.040,91.486 57.860 C 91.486 57.680,91.786 57.261,92.154 56.928 C 92.521 56.596,92.821 56.184,92.821 56.014 C 92.821 55.843,93.347 55.193,93.990 54.569 C 94.633 53.945,95.159 53.299,95.159 53.135 C 95.159 52.970,95.722 52.230,96.411 51.490 C 97.099 50.750,98.564 49.128,99.666 47.885 C 100.768 46.643,102.103 45.239,102.633 44.766 C 103.792 43.732,105.032 42.501,106.224 41.197 C 107.439 39.870,111.827 35.740,113.102 34.725 C 113.678 34.265,114.625 33.514,115.205 33.055 C 115.786 32.596,116.665 31.827,117.159 31.347 C 117.652 30.867,118.388 30.368,118.794 30.239 C 119.200 30.111,119.533 29.861,119.533 29.685 C 119.533 29.510,119.912 29.221,120.376 29.045 C 120.840 28.869,121.306 28.497,121.413 28.219 C 121.520 27.940,121.818 27.713,122.076 27.713 C 122.333 27.713,122.801 27.412,123.116 27.045 C 123.430 26.678,123.871 26.377,124.095 26.377 C 124.320 26.377,124.699 26.098,124.939 25.757 C 125.179 25.416,125.714 25.031,126.127 24.900 C 126.540 24.770,126.878 24.539,126.878 24.388 C 126.878 24.236,127.254 24.018,127.713 23.903 C 128.172 23.788,128.548 23.546,128.548 23.366 C 128.548 23.186,128.773 23.038,129.048 23.038 C 129.324 23.038,129.549 22.888,129.549 22.705 C 129.549 22.521,129.693 22.371,129.868 22.371 C 130.044 22.371,130.738 21.997,131.410 21.541 C 132.083 21.084,132.766 20.793,132.928 20.893 C 133.090 20.993,133.222 20.940,133.222 20.775 C 133.222 20.610,133.821 20.188,134.554 19.837 C 135.286 19.486,135.887 19.098,135.889 18.975 C 135.891 18.852,136.344 18.652,136.895 18.531 C 137.446 18.410,137.896 18.175,137.896 18.010 C 137.896 17.844,138.272 17.615,138.731 17.499 C 139.190 17.384,139.566 17.156,139.566 16.992 C 139.566 16.828,139.791 16.694,140.067 16.694 C 140.342 16.694,140.568 16.556,140.568 16.387 C 140.568 16.218,141.020 15.980,141.573 15.859 C 142.125 15.738,142.989 15.444,143.493 15.206 C 143.996 14.969,144.896 14.569,145.492 14.317 C 146.089 14.066,146.578 13.747,146.578 13.608 C 146.578 13.469,146.841 13.350,147.162 13.344 C 147.483 13.338,148.347 13.043,149.082 12.688 C 149.816 12.333,150.671 12.038,150.982 12.031 C 151.292 12.025,151.639 11.870,151.753 11.686 C 151.866 11.503,152.213 11.351,152.524 11.350 C 152.834 11.349,153.519 11.124,154.045 10.849 C 154.571 10.575,155.209 10.351,155.464 10.351 C 155.718 10.351,155.927 10.214,155.927 10.048 C 155.927 9.882,156.678 9.642,157.596 9.516 C 158.514 9.390,159.265 9.167,159.265 9.022 C 159.265 8.877,160.092 8.655,161.102 8.529 C 162.112 8.402,162.938 8.160,162.938 7.989 C 162.938 7.819,163.389 7.679,163.940 7.679 C 164.491 7.679,164.942 7.544,164.942 7.379 C 164.942 7.214,165.993 6.974,167.279 6.845 C 168.564 6.716,169.616 6.485,169.616 6.333 C 169.616 6.181,170.818 5.951,172.287 5.823 C 173.756 5.695,174.958 5.459,174.958 5.299 C 174.958 5.139,175.785 5.008,176.795 5.008 C 177.805 5.008,178.631 4.858,178.631 4.674 C 178.631 4.491,179.382 4.341,180.301 4.341 L 181.970 4.341 181.970 2.838 L 181.970 1.336 177.796 1.336 C 175.501 1.336,173.623 1.467,173.623 1.627 M14.213 297.793 C 14.051 298.055,12.663 298.387,10.935 298.577 C 10.614 298.612,10.351 298.759,10.351 298.903 C 10.351 299.047,10.125 299.165,9.850 299.165 C 9.574 299.165,9.349 299.304,9.349 299.473 C 9.349 299.642,8.917 299.875,8.389 299.991 C 7.861 300.107,7.084 300.569,6.662 301.019 C 6.239 301.469,5.694 301.836,5.451 301.836 C 5.208 301.836,5.008 301.988,5.008 302.173 C 5.008 302.359,4.558 302.982,4.007 303.558 C 3.456 304.135,3.005 304.810,3.005 305.058 C 3.005 305.306,2.858 305.509,2.677 305.509 C 2.497 305.509,2.256 305.885,2.140 306.344 C 2.025 306.803,1.797 307.179,1.633 307.179 C 1.470 307.179,1.336 307.542,1.336 307.986 C 1.336 308.429,1.168 308.848,0.963 308.917 C 0.052 309.220,0.052 322.499,0.963 322.803 C 1.168 322.871,1.336 323.290,1.336 323.734 C 1.336 324.178,1.470 324.541,1.633 324.541 C 1.797 324.541,2.025 324.917,2.140 325.376 C 2.256 325.835,2.497 326.210,2.677 326.210 C 2.858 326.210,3.005 326.434,3.005 326.707 C 3.005 327.480,7.303 331.490,8.387 331.728 C 8.916 331.845,9.349 332.078,9.349 332.247 C 9.349 332.416,9.574 332.554,9.850 332.554 C 10.125 332.554,10.351 332.682,10.351 332.839 C 10.351 333.293,14.711 333.890,18.030 333.890 C 21.349 333.890,25.710 333.293,25.710 332.839 C 25.710 332.682,25.935 332.554,26.210 332.554 C 26.486 332.554,26.711 332.420,26.711 332.257 C 26.711 332.093,27.100 331.861,27.575 331.742 C 28.051 331.623,28.838 331.156,29.325 330.704 C 29.812 330.253,30.382 329.883,30.593 329.883 C 31.797 329.883,32.053 328.388,32.053 321.381 L 32.053 314.524 24.022 314.524 L 15.990 314.524 16.092 316.110 L 16.194 317.696 22.287 317.787 L 28.381 317.878 28.381 322.211 C 28.381 326.855,28.170 327.478,26.410 328.036 C 26.025 328.159,25.710 328.399,25.710 328.570 C 25.710 328.741,25.484 328.881,25.209 328.881 C 24.933 328.881,24.708 329.018,24.708 329.184 C 24.708 329.350,23.957 329.590,23.038 329.716 C 22.120 329.842,21.369 330.082,21.369 330.248 C 21.369 330.636,15.124 330.648,14.885 330.261 C 14.787 330.101,14.102 329.874,13.363 329.756 C 12.624 329.638,12.020 329.393,12.020 329.211 C 12.020 329.030,11.720 328.881,11.352 328.881 C 10.985 328.881,10.684 328.731,10.684 328.548 C 10.684 328.364,10.454 328.214,10.173 328.214 C 9.892 328.214,9.575 327.988,9.470 327.713 C 9.364 327.437,9.091 327.212,8.863 327.212 C 8.346 327.212,7.012 326.078,7.012 325.638 C 7.012 325.350,6.668 324.867,5.348 323.303 C 5.161 323.081,5.008 322.605,5.008 322.246 C 5.008 321.886,4.847 321.538,4.650 321.472 C 4.452 321.406,4.206 320.417,4.102 319.274 C 3.999 318.131,3.785 317.195,3.626 317.195 C 3.468 317.195,3.339 316.594,3.339 315.860 C 3.339 315.125,3.468 314.524,3.625 314.524 C 3.783 314.524,4.010 313.585,4.129 312.437 C 4.249 311.290,4.496 310.301,4.678 310.239 C 4.860 310.178,5.008 309.840,5.008 309.488 C 5.008 309.136,5.144 308.848,5.310 308.848 C 5.475 308.848,5.774 308.435,5.973 307.930 C 6.638 306.241,8.044 304.508,8.748 304.508 C 8.912 304.508,9.378 304.157,9.782 303.729 C 10.187 303.300,11.344 302.668,12.354 302.324 C 13.364 301.980,14.376 301.563,14.602 301.397 C 15.212 300.951,21.818 301.013,21.969 301.466 C 22.037 301.670,22.330 301.836,22.620 301.836 C 23.349 301.836,25.710 302.906,25.710 303.236 C 25.710 303.385,25.912 303.506,26.160 303.506 C 26.408 303.506,27.233 303.957,27.994 304.508 C 29.674 305.725,29.676 305.725,30.624 304.623 C 31.836 303.212,31.259 301.597,29.323 300.983 C 28.989 300.877,28.715 300.662,28.715 300.505 C 28.715 300.348,28.264 300.121,27.713 300.000 C 27.162 299.879,26.711 299.642,26.711 299.473 C 26.711 299.304,26.486 299.165,26.210 299.165 C 25.935 299.165,25.710 299.040,25.710 298.887 C 25.710 298.734,25.522 298.584,25.292 298.553 C 23.288 298.283,22.371 298.045,22.371 297.793 C 22.371 297.405,14.453 297.405,14.213 297.793 M37.810 315.776 L 37.896 333.389 39.482 333.491 L 41.068 333.593 41.068 315.878 L 41.068 298.164 39.396 298.164 L 37.724 298.164 37.810 315.776 M76.127 315.860 L 76.127 333.556 77.963 333.556 L 79.800 333.556 79.800 331.806 L 79.800 330.057 80.648 330.972 C 81.114 331.475,81.715 331.886,81.983 331.886 C 82.251 331.886,82.471 332.037,82.471 332.220 C 82.471 332.404,82.684 332.554,82.944 332.554 C 83.204 332.554,83.468 332.706,83.529 332.892 C 83.940 334.123,95.018 334.113,95.437 332.882 C 95.498 332.702,95.761 332.554,96.021 332.554 C 96.281 332.554,96.494 332.438,96.494 332.296 C 96.494 332.154,97.032 331.749,97.689 331.395 C 98.345 331.041,99.101 330.331,99.367 329.817 C 99.633 329.302,99.997 328.881,100.176 328.881 C 100.354 328.881,100.502 328.694,100.503 328.464 C 100.504 328.235,100.760 327.596,101.072 327.045 C 101.763 325.824,101.954 316.016,101.294 315.597 C 101.088 315.466,100.820 314.902,100.699 314.344 C 100.475 313.310,97.277 309.850,96.546 309.850 C 96.334 309.850,96.160 309.711,96.160 309.542 C 96.160 309.373,95.711 309.136,95.162 309.016 C 94.614 308.895,94.079 308.658,93.974 308.489 C 93.869 308.319,93.275 308.180,92.654 308.180 C 92.033 308.180,91.443 308.048,91.343 307.886 C 91.243 307.724,90.258 307.591,89.153 307.591 C 88.049 307.591,87.145 307.724,87.145 307.886 C 87.145 308.048,86.628 308.180,85.996 308.180 C 85.364 308.180,84.762 308.319,84.657 308.489 C 84.552 308.658,84.017 308.895,83.469 309.016 C 82.920 309.136,82.471 309.373,82.471 309.542 C 82.471 309.711,82.252 309.850,81.985 309.850 C 81.718 309.850,81.117 310.232,80.650 310.700 L 79.800 311.550 79.800 304.857 L 79.800 298.164 77.963 298.164 L 76.127 298.164 76.127 315.860 M136.895 315.860 L 136.895 333.556 138.731 333.556 L 140.568 333.556 140.568 315.860 L 140.568 298.164 138.731 298.164 L 136.895 298.164 136.895 315.860 M177.295 298.536 C 177.295 298.741,176.544 299.625,175.626 300.501 C 174.708 301.377,173.957 302.254,173.957 302.450 C 173.957 302.646,173.280 303.474,172.454 304.288 C 171.628 305.103,170.952 305.905,170.952 306.070 C 170.952 306.236,170.351 306.924,169.616 307.599 C 168.881 308.275,168.280 308.983,168.280 309.173 C 168.280 309.363,167.529 310.255,166.611 311.154 C 165.693 312.053,164.942 312.929,164.942 313.101 C 164.942 313.273,164.267 314.077,163.442 314.887 C 162.617 315.698,161.939 316.511,161.936 316.694 C 161.933 316.878,161.332 317.554,160.601 318.197 C 159.870 318.840,159.271 319.561,159.269 319.799 C 159.267 320.037,158.890 320.580,158.431 321.006 C 157.572 321.802,157.270 323.632,157.930 324.040 C 158.114 324.154,158.264 324.538,158.264 324.894 C 158.264 325.522,158.593 325.543,168.781 325.543 L 179.299 325.543 179.299 329.549 L 179.299 333.556 181.135 333.556 L 182.972 333.556 182.972 329.549 L 182.972 325.543 185.142 325.543 L 187.312 325.543 187.312 323.706 L 187.312 321.870 185.142 321.870 L 182.972 321.870 182.972 310.017 L 182.972 298.164 180.134 298.164 C 178.268 298.164,177.295 298.291,177.295 298.536 M179.187 321.759 C 179.119 321.827,175.421 321.842,170.969 321.792 L 162.873 321.703 163.740 320.767 C 164.217 320.253,164.608 319.740,164.608 319.627 C 164.608 319.514,164.832 319.184,165.106 318.893 C 165.380 318.602,166.057 317.887,166.609 317.304 C 167.161 316.722,167.613 316.164,167.613 316.066 C 167.613 315.967,168.176 315.286,168.865 314.551 C 170.036 313.302,170.922 312.276,172.955 309.813 C 173.414 309.257,174.428 308.127,175.209 307.303 C 175.989 306.478,176.628 305.667,176.628 305.499 C 176.628 305.331,177.191 304.627,177.880 303.933 L 179.132 302.671 179.221 312.154 C 179.269 317.370,179.254 321.692,179.187 321.759 M55.593 307.926 C 55.042 308.121,54.118 308.483,53.539 308.731 C 52.960 308.979,52.322 309.182,52.120 309.182 C 51.918 309.182,51.753 309.332,51.753 309.516 C 51.753 309.699,51.545 309.850,51.291 309.850 C 50.779 309.850,48.080 312.420,48.080 312.908 C 48.080 313.078,47.776 313.543,47.405 313.941 C 47.034 314.340,46.638 315.238,46.526 315.938 C 46.415 316.638,46.192 317.291,46.033 317.389 C 45.620 317.645,45.662 324.541,46.077 324.541 C 46.260 324.541,46.411 324.992,46.411 325.543 C 46.411 326.093,46.568 326.544,46.759 326.544 C 46.951 326.544,47.077 326.732,47.040 326.962 C 46.869 328.025,50.175 331.886,51.256 331.886 C 51.530 331.886,51.755 331.999,51.757 332.137 C 51.792 334.464,63.518 334.327,66.044 331.970 C 66.290 331.740,66.643 331.553,66.827 331.553 C 67.277 331.553,69.115 329.695,69.115 329.241 C 69.115 329.043,69.263 328.881,69.443 328.881 C 69.623 328.881,69.865 328.506,69.980 328.047 C 70.095 327.588,70.312 327.212,70.463 327.212 C 70.613 327.212,70.840 326.386,70.966 325.376 C 71.092 324.366,71.328 323.539,71.491 323.539 C 71.653 323.539,71.786 322.487,71.786 321.202 C 71.786 319.917,71.657 318.865,71.499 318.865 C 71.341 318.865,71.127 318.076,71.024 317.112 C 70.821 315.226,70.068 313.466,68.968 312.306 C 68.590 311.908,68.055 311.305,67.779 310.966 C 67.180 310.230,64.687 308.848,63.957 308.848 C 63.672 308.848,63.439 308.698,63.439 308.514 C 63.439 308.331,62.913 308.180,62.270 308.180 C 61.628 308.180,61.102 308.060,61.102 307.913 C 61.102 307.511,56.739 307.521,55.593 307.926 M117.651 307.919 C 117.562 308.063,116.747 308.180,115.840 308.180 C 114.933 308.180,114.190 308.311,114.190 308.471 C 114.190 308.630,113.669 308.845,113.032 308.949 C 112.395 309.052,111.629 309.335,111.330 309.577 C 109.816 310.803,107.846 312.825,107.846 313.152 C 107.846 313.356,107.712 313.523,107.549 313.523 C 107.385 313.523,107.148 313.934,107.021 314.437 C 106.895 314.941,106.623 315.457,106.417 315.584 C 105.137 316.375,106.018 327.583,107.401 328.114 C 107.646 328.208,107.846 328.426,107.846 328.597 C 107.846 329.242,110.417 331.886,111.044 331.886 C 111.305 331.886,111.521 331.999,111.523 332.137 C 111.525 332.275,112.154 332.688,112.920 333.055 C 115.743 334.409,125.181 333.703,125.205 332.137 C 125.207 331.999,125.428 331.886,125.696 331.886 C 125.964 331.886,126.565 331.475,127.032 330.972 L 127.880 330.057 127.880 331.806 L 127.880 333.556 129.716 333.556 L 131.553 333.556 131.553 320.851 L 131.553 308.145 129.800 308.246 L 128.047 308.347 127.947 309.894 C 127.849 311.404,127.827 311.432,127.031 311.063 C 126.583 310.855,126.214 310.584,126.213 310.461 C 126.208 310.061,123.980 308.848,123.249 308.848 C 122.858 308.848,122.538 308.698,122.538 308.514 C 122.538 308.331,121.870 308.180,121.055 308.180 C 120.239 308.180,119.485 308.040,119.379 307.868 C 119.152 307.502,117.886 307.540,117.651 307.919 M91.569 311.668 C 92.625 311.796,93.489 312.030,93.489 312.189 C 93.489 312.347,93.797 312.574,94.174 312.693 C 95.083 312.982,96.695 314.582,96.980 315.478 C 97.105 315.871,97.333 316.194,97.487 316.194 C 97.734 316.194,98.361 319.496,98.178 319.829 C 98.139 319.900,98.303 320.080,98.543 320.228 C 98.888 320.442,98.898 320.727,98.593 321.601 C 98.380 322.208,98.105 323.417,97.981 324.287 C 97.856 325.157,97.621 325.787,97.458 325.686 C 97.295 325.586,97.162 325.751,97.162 326.053 C 97.162 326.968,94.210 329.583,92.947 329.788 C 92.327 329.888,91.820 330.101,91.820 330.261 C 91.820 330.420,90.618 330.551,89.149 330.551 C 87.679 330.551,86.477 330.417,86.477 330.254 C 86.477 330.091,85.987 329.865,85.387 329.753 C 84.114 329.514,81.281 326.742,80.946 325.406 C 80.827 324.933,80.607 324.622,80.456 324.715 C 79.429 325.350,79.765 317.983,80.832 316.484 C 81.207 315.957,81.412 315.526,81.286 315.526 C 80.943 315.526,83.506 313.084,84.526 312.440 C 85.409 311.881,88.196 311.234,89.149 311.366 C 89.424 311.404,90.513 311.540,91.569 311.668 M62.806 312.159 C 64.422 313.025,66.444 314.976,66.444 315.668 C 66.444 315.979,66.579 316.150,66.743 316.048 C 67.085 315.837,67.446 316.612,67.446 317.557 C 67.446 317.909,67.596 318.197,67.780 318.197 C 67.974 318.197,68.114 319.310,68.114 320.868 C 68.114 322.337,67.983 323.539,67.823 323.539 C 67.664 323.539,67.448 324.066,67.343 324.709 C 67.079 326.337,63.899 329.517,62.271 329.781 C 61.628 329.885,61.102 330.101,61.102 330.261 C 61.102 330.420,59.900 330.551,58.431 330.551 C 56.962 330.551,55.760 330.413,55.760 330.244 C 55.760 330.075,55.309 329.837,54.758 329.716 C 54.207 329.595,53.756 329.358,53.756 329.189 C 53.756 329.020,53.583 328.881,53.371 328.881 C 52.774 328.881,50.421 326.178,50.189 325.225 C 50.074 324.757,49.821 324.270,49.625 324.142 C 49.187 323.856,49.178 317.895,49.615 317.582 C 49.784 317.461,50.222 316.763,50.588 316.031 C 51.588 314.026,53.530 312.261,54.508 312.468 C 54.645 312.497,54.758 312.382,54.758 312.211 C 54.758 311.309,61.143 311.268,62.806 312.159 M122.800 312.289 C 123.144 312.600,123.545 312.855,123.693 312.855 C 124.090 312.855,126.878 315.715,126.878 316.122 C 126.878 316.314,127.066 316.534,127.295 316.611 C 127.599 316.712,127.713 317.870,127.713 320.868 C 127.713 323.865,127.599 325.024,127.295 325.125 C 127.066 325.202,126.878 325.477,126.878 325.737 C 126.878 325.997,126.744 326.210,126.580 326.210 C 126.417 326.210,126.188 326.586,126.073 327.045 C 125.958 327.504,125.710 327.880,125.521 327.880 C 125.333 327.880,124.816 328.242,124.373 328.685 C 123.931 329.128,123.111 329.590,122.552 329.713 C 121.993 329.836,121.536 330.075,121.536 330.244 C 121.536 330.646,115.957 330.645,115.709 330.243 C 115.604 330.073,115.069 329.836,114.520 329.715 C 113.972 329.595,113.523 329.358,113.523 329.189 C 113.523 329.020,113.377 328.881,113.200 328.881 C 112.828 328.881,110.851 327.017,110.851 326.665 C 110.851 326.536,110.643 326.193,110.388 325.903 C 109.627 325.038,108.525 319.866,109.102 319.866 C 109.282 319.866,109.507 319.172,109.603 318.323 C 109.699 317.474,109.923 316.685,110.102 316.570 C 110.281 316.455,110.533 316.023,110.662 315.609 C 110.791 315.196,111.037 314.858,111.208 314.858 C 111.379 314.858,111.519 314.633,111.519 314.357 C 111.519 314.082,111.746 313.856,112.023 313.856 C 112.301 313.856,112.785 313.556,113.099 313.189 C 113.414 312.821,113.863 312.521,114.098 312.521 C 114.332 312.521,114.524 312.381,114.524 312.209 C 114.524 311.345,121.835 311.416,122.800 312.289 " stroke="none" fill="#34a4dc" fill-rule="evenodd"></path><path id="path1" d="M216.778 0.245 C 217.650 0.314,219.078 0.314,219.950 0.245 C 220.822 0.177,220.109 0.120,218.364 0.120 C 216.619 0.120,215.906 0.177,216.778 0.245 M316.628 95.159 C 316.628 96.169,316.690 96.582,316.767 96.077 C 316.843 95.572,316.843 94.745,316.767 94.240 C 316.690 93.735,316.628 94.149,316.628 95.159 M208.782 301.084 C 210.582 301.144,213.437 301.144,215.126 301.083 C 216.815 301.023,215.342 300.974,211.853 300.974 C 208.364 300.974,206.982 301.024,208.782 301.084 M254.574 308.940 C 254.484 309.174,254.451 312.592,254.501 316.536 L 254.592 323.706 254.759 316.110 C 254.921 308.672,254.906 308.074,254.574 308.940 M208.949 313.772 C 210.841 313.831,213.846 313.831,215.627 313.771 C 217.408 313.711,215.860 313.663,212.187 313.663 C 208.514 313.663,207.057 313.712,208.949 313.772 M317.272 325.251 C 317.203 331.786,317.251 332.516,317.780 332.931 C 318.295 333.335,318.316 333.327,317.953 332.862 C 317.665 332.492,317.514 330.202,317.446 325.183 L 317.348 318.030 317.272 325.251 M320.676 325.710 C 320.676 329.566,320.724 331.098,320.784 329.114 C 320.843 327.130,320.842 323.974,320.783 322.102 C 320.724 320.230,320.675 321.853,320.676 325.710 M245.997 333.792 C 246.413 333.872,247.014 333.869,247.333 333.785 C 247.652 333.702,247.312 333.636,246.578 333.640 C 245.843 333.644,245.582 333.712,245.997 333.792 M272.705 333.792 C 273.118 333.871,273.794 333.871,274.207 333.792 C 274.620 333.712,274.282 333.647,273.456 333.647 C 272.629 333.647,272.291 333.712,272.705 333.792 M364.190 333.792 C 364.604 333.871,365.280 333.871,365.693 333.792 C 366.106 333.712,365.768 333.647,364.942 333.647 C 364.115 333.647,363.777 333.712,364.190 333.792 M389.232 333.792 C 389.645 333.871,390.321 333.871,390.735 333.792 C 391.148 333.712,390.810 333.647,389.983 333.647 C 389.157 333.647,388.819 333.712,389.232 333.792 " stroke="none" fill="#5c5c54" fill-rule="evenodd"></path><path id="path2" d="M209.028 0.392 C 204.685 0.688,203.515 1.228,202.337 3.483 C 201.649 4.801,201.566 279.153,202.254 279.382 C 202.483 279.459,202.671 279.680,202.671 279.875 C 202.671 280.706,204.675 282.137,205.840 282.137 C 206.484 282.137,207.012 282.290,207.012 282.476 C 207.012 282.663,207.425 282.802,207.930 282.785 C 209.474 282.733,212.180 283.177,212.298 283.501 C 212.359 283.669,213.193 283.806,214.151 283.806 C 215.109 283.806,216.081 283.994,216.311 284.224 C 216.919 284.832,247.794 284.832,247.997 284.224 C 248.085 283.958,248.796 283.806,249.955 283.806 C 251.100 283.806,251.834 283.652,251.938 283.389 C 252.042 283.122,252.965 282.938,254.500 282.880 C 255.820 282.829,256.981 282.659,257.081 282.502 C 257.180 282.346,258.201 282.109,259.349 281.977 C 260.497 281.845,261.436 281.602,261.436 281.436 C 261.436 281.271,261.886 281.135,262.437 281.135 C 262.988 281.135,263.439 280.985,263.439 280.801 C 263.439 280.618,263.806 280.467,264.254 280.467 C 264.702 280.467,265.150 280.337,265.248 280.178 C 265.346 280.019,265.806 279.962,266.269 280.050 C 266.733 280.139,267.112 280.063,267.112 279.881 C 267.112 279.700,267.713 279.455,268.447 279.338 C 269.182 279.220,269.783 278.976,269.783 278.794 C 269.783 278.613,270.046 278.465,270.367 278.466 C 271.204 278.468,274.124 277.381,274.124 277.067 C 274.124 276.921,274.725 276.706,275.459 276.589 C 276.194 276.472,276.795 276.256,276.795 276.111 C 276.795 275.965,277.245 275.747,277.796 275.626 C 278.347 275.505,278.798 275.268,278.798 275.099 C 278.798 274.930,279.098 274.791,279.466 274.791 C 279.833 274.791,280.134 274.653,280.134 274.484 C 280.134 274.315,280.584 274.078,281.135 273.957 C 281.686 273.836,282.137 273.615,282.137 273.465 C 282.137 273.316,282.541 273.093,283.035 272.969 C 283.529 272.845,284.177 272.463,284.474 272.120 C 284.771 271.778,285.419 271.396,285.913 271.272 C 286.407 271.148,286.811 270.869,286.811 270.653 C 286.811 270.436,287.108 270.237,287.470 270.209 C 288.138 270.159,288.555 269.885,290.030 268.531 C 290.480 268.118,290.969 267.780,291.116 267.780 C 291.595 267.780,292.816 266.550,292.575 266.309 C 292.446 266.180,292.568 266.162,292.847 266.269 C 293.147 266.384,293.650 266.121,294.086 265.619 C 294.490 265.155,294.985 264.775,295.185 264.775 C 295.386 264.775,296.384 263.948,297.402 262.938 C 298.420 261.928,299.368 261.102,299.508 261.102 C 299.851 261.102,303.840 257.024,303.840 256.674 C 303.840 256.522,304.666 255.620,305.676 254.670 C 306.686 253.719,307.513 252.812,307.513 252.655 C 307.513 252.498,307.926 251.935,308.431 251.404 C 309.670 250.101,310.184 249.477,310.184 249.274 C 310.184 249.181,310.634 248.644,311.185 248.080 C 311.736 247.517,312.187 246.894,312.187 246.698 C 312.187 246.501,312.563 246.044,313.022 245.683 C 313.481 245.322,313.856 244.812,313.856 244.550 C 313.856 244.288,313.997 244.073,314.168 244.073 C 314.339 244.073,314.582 243.749,314.708 243.354 C 314.833 242.958,315.294 242.302,315.732 241.896 C 316.169 241.491,316.528 240.988,316.528 240.780 C 316.528 240.571,316.675 240.401,316.855 240.401 C 317.035 240.401,317.277 240.025,317.392 239.566 C 317.507 239.107,317.719 238.731,317.863 238.731 C 318.007 238.731,318.219 238.356,318.334 237.896 C 318.449 237.437,318.691 237.062,318.871 237.062 C 319.051 237.062,319.199 236.849,319.199 236.589 C 319.199 236.329,319.357 236.063,319.551 235.998 C 319.744 235.934,319.943 235.609,319.992 235.276 C 320.040 234.943,320.220 234.570,320.391 234.447 C 320.728 234.204,321.407 233.186,321.764 232.387 C 321.887 232.112,322.108 231.805,322.254 231.705 C 322.401 231.605,322.573 231.180,322.637 230.759 C 322.701 230.339,322.927 229.888,323.138 229.758 C 323.349 229.627,323.577 229.159,323.645 228.718 C 323.712 228.276,323.937 227.859,324.144 227.790 C 324.350 227.721,324.616 227.149,324.734 226.520 C 324.853 225.891,325.083 225.376,325.246 225.376 C 325.409 225.376,325.543 225.163,325.543 224.903 C 325.543 224.642,325.682 224.380,325.852 224.318 C 326.022 224.257,326.259 223.756,326.380 223.205 C 326.554 222.407,326.520 222.305,326.212 222.705 C 325.869 223.150,325.842 223.150,325.969 222.705 C 326.048 222.429,326.357 222.247,326.656 222.300 C 327.058 222.372,327.256 222.046,327.416 221.048 C 327.534 220.306,327.778 219.699,327.958 219.699 C 328.138 219.699,328.203 219.487,328.104 219.226 C 328.004 218.966,328.119 218.678,328.360 218.585 C 328.600 218.493,328.898 217.879,329.021 217.222 C 329.145 216.565,329.375 216.027,329.533 216.027 C 329.691 216.027,329.924 215.275,330.050 214.357 C 330.176 213.439,330.416 212.688,330.582 212.688 C 330.749 212.688,330.885 212.417,330.885 212.087 C 330.885 211.756,331.030 211.340,331.208 211.162 C 331.386 210.984,331.621 210.093,331.731 209.182 C 331.840 208.271,332.055 207.447,332.208 207.352 C 332.361 207.257,332.594 206.315,332.726 205.259 C 332.857 204.203,333.083 203.339,333.227 203.339 C 333.622 203.339,333.778 200.357,333.391 200.194 C 333.206 200.116,333.243 200.041,333.472 200.026 C 333.708 200.011,333.890 199.563,333.890 198.998 C 333.890 198.447,334.020 197.997,334.179 197.997 C 334.338 197.997,334.469 197.247,334.469 196.332 C 334.469 195.416,334.664 194.431,334.902 194.144 C 335.500 193.424,335.547 173.811,334.953 173.216 C 334.735 172.999,334.558 172.025,334.558 171.052 C 334.558 170.078,334.407 169.282,334.224 169.282 C 334.040 169.282,333.890 168.690,333.890 167.966 C 333.890 167.243,333.760 166.570,333.601 166.472 C 333.442 166.373,333.384 165.914,333.473 165.450 C 333.567 164.956,333.480 164.608,333.261 164.608 C 333.056 164.608,332.888 164.166,332.888 163.626 C 332.888 163.086,332.752 162.560,332.586 162.457 C 332.419 162.354,332.362 161.969,332.458 161.602 C 332.555 161.229,332.468 160.935,332.259 160.935 C 332.054 160.935,331.886 160.657,331.886 160.317 C 331.886 159.142,331.158 157.596,330.602 157.591 C 330.123 157.586,330.116 157.542,330.551 157.257 C 330.898 157.029,330.938 156.851,330.683 156.678 C 330.479 156.540,330.212 155.875,330.088 155.200 C 329.964 154.524,329.754 153.923,329.622 153.864 C 329.490 153.805,329.082 153.155,328.715 152.421 C 328.348 151.686,327.860 150.887,327.630 150.644 C 327.400 150.401,327.212 149.988,327.212 149.726 C 327.212 149.463,327.072 149.249,326.901 149.249 C 326.729 149.249,326.484 148.918,326.356 148.513 C 326.073 147.622,325.366 146.866,325.081 147.150 C 324.968 147.264,324.875 147.062,324.875 146.701 C 324.875 146.340,324.430 145.677,323.887 145.226 C 323.344 144.776,322.893 144.231,322.886 144.015 C 322.859 143.266,318.869 139.496,318.052 139.446 C 317.616 139.420,317.336 139.275,317.430 139.123 C 317.627 138.803,316.390 137.563,315.874 137.563 C 315.169 137.563,315.559 136.605,316.778 135.344 C 318.135 133.940,318.774 133.050,319.080 132.137 C 319.188 131.816,319.409 131.553,319.571 131.553 C 319.734 131.553,319.866 131.388,319.866 131.188 C 319.866 130.987,320.167 130.441,320.534 129.974 C 320.902 129.507,321.202 128.858,321.202 128.530 C 321.202 128.203,321.315 127.885,321.452 127.824 C 321.899 127.626,322.871 125.626,322.871 124.907 C 322.871 124.522,323.002 124.207,323.163 124.207 C 323.323 124.207,323.550 123.606,323.667 122.871 C 323.785 122.137,324.012 121.536,324.172 121.536 C 324.333 121.536,324.567 120.710,324.693 119.699 C 324.820 118.689,325.062 117.863,325.233 117.863 C 325.403 117.863,325.543 117.412,325.543 116.861 C 325.543 116.311,325.709 115.860,325.912 115.860 C 326.141 115.860,326.232 115.353,326.153 114.524 C 326.083 113.790,326.142 113.189,326.285 113.189 C 326.428 113.189,326.544 112.600,326.544 111.881 C 326.544 111.162,326.685 110.523,326.858 110.462 C 327.030 110.401,327.260 108.397,327.369 106.010 C 327.477 103.623,327.712 101.619,327.890 101.558 C 328.258 101.432,328.349 89.729,327.985 89.365 C 327.579 88.960,326.943 86.812,327.292 87.028 C 327.509 87.162,327.539 86.150,327.378 84.101 C 327.243 82.378,326.990 80.878,326.815 80.767 C 326.641 80.657,326.437 79.606,326.362 78.433 C 326.287 77.259,326.072 76.248,325.884 76.185 C 325.696 76.122,325.543 75.558,325.543 74.930 C 325.543 74.303,325.410 73.790,325.247 73.790 C 325.085 73.790,324.848 72.963,324.722 71.953 C 324.596 70.943,324.367 70.117,324.212 70.117 C 324.058 70.117,323.824 69.479,323.692 68.699 C 323.553 67.873,323.178 67.088,322.794 66.820 C 322.384 66.532,322.269 66.276,322.491 66.139 C 322.894 65.890,322.616 64.441,322.165 64.441 C 322.003 64.441,321.870 64.065,321.870 63.606 C 321.870 63.147,321.720 62.771,321.536 62.771 C 321.352 62.771,321.202 62.537,321.202 62.251 C 321.202 61.964,321.054 61.822,320.873 61.933 C 320.669 62.060,320.622 61.750,320.748 61.118 C 320.868 60.518,320.812 60.100,320.612 60.100 C 320.425 60.100,320.174 59.706,320.053 59.225 C 319.932 58.744,319.622 58.138,319.363 57.880 C 319.105 57.621,318.978 57.189,319.082 56.919 C 319.185 56.648,319.116 56.427,318.927 56.427 C 318.738 56.427,318.485 55.977,318.364 55.426 C 318.243 54.875,318.006 54.424,317.837 54.424 C 317.668 54.424,317.529 54.259,317.529 54.057 C 317.529 53.610,316.483 51.317,316.173 51.085 C 316.050 50.993,315.844 50.578,315.714 50.162 C 315.584 49.746,315.357 49.481,315.209 49.572 C 315.061 49.664,314.849 49.287,314.739 48.736 C 314.534 47.710,314.365 47.447,312.771 45.667 C 312.266 45.104,311.853 44.494,311.853 44.313 C 311.853 44.131,311.477 43.635,311.018 43.209 C 310.559 42.784,310.184 42.347,310.184 42.239 C 310.184 42.000,309.555 41.216,308.765 40.470 C 308.443 40.167,308.180 39.794,308.180 39.643 C 308.180 39.056,305.186 36.348,304.801 36.586 C 304.550 36.741,304.493 36.688,304.645 36.441 C 304.896 36.036,300.180 31.052,299.546 31.052 C 299.358 31.052,299.097 30.878,298.966 30.666 C 298.805 30.405,298.880 30.371,299.197 30.561 C 299.455 30.715,298.890 30.062,297.941 29.110 C 296.992 28.158,296.053 27.379,295.854 27.379 C 295.655 27.379,295.492 27.239,295.492 27.068 C 295.492 26.896,295.200 26.663,294.842 26.550 C 294.484 26.436,294.101 26.058,293.990 25.710 C 293.879 25.361,293.473 24.976,293.086 24.853 C 292.699 24.730,292.051 24.272,291.646 23.834 C 291.240 23.396,290.737 23.038,290.527 23.038 C 290.317 23.038,289.819 22.663,289.420 22.204 C 289.021 21.745,288.491 21.369,288.243 21.369 C 287.995 21.369,287.711 21.157,287.611 20.898 C 287.512 20.639,287.066 20.336,286.620 20.224 C 286.174 20.112,285.810 19.873,285.810 19.693 C 285.810 19.513,285.649 19.366,285.452 19.366 C 285.255 19.366,284.860 19.132,284.574 18.846 C 284.288 18.560,283.848 18.405,283.596 18.501 C 283.338 18.600,283.139 18.466,283.139 18.193 C 283.139 17.927,282.763 17.615,282.304 17.499 C 281.845 17.384,281.469 17.156,281.469 16.992 C 281.469 16.828,281.244 16.694,280.968 16.694 C 280.693 16.694,280.467 16.547,280.467 16.367 C 280.467 16.187,280.092 15.945,279.633 15.830 C 279.174 15.715,278.798 15.498,278.798 15.349 C 278.798 15.200,278.347 14.979,277.796 14.858 C 277.245 14.737,276.795 14.516,276.795 14.367 C 276.795 14.218,276.419 14.001,275.960 13.886 C 275.501 13.771,275.125 13.529,275.125 13.349 C 275.125 13.169,274.900 13.022,274.624 13.022 C 274.349 13.022,274.124 12.883,274.124 12.714 C 274.124 12.545,273.673 12.308,273.122 12.187 C 272.571 12.066,272.120 11.848,272.120 11.702 C 272.120 11.557,271.519 11.341,270.785 11.224 C 270.050 11.107,269.449 10.897,269.449 10.759 C 269.449 10.452,266.966 9.349,266.275 9.349 C 266.001 9.349,265.776 9.200,265.776 9.019 C 265.776 8.838,265.175 8.593,264.441 8.475 C 263.706 8.358,263.105 8.148,263.105 8.010 C 263.105 7.688,261.783 7.258,261.018 7.331 C 260.697 7.362,260.434 7.212,260.434 6.997 C 260.434 6.782,260.213 6.691,259.943 6.795 C 259.673 6.898,259.251 6.782,259.005 6.537 C 258.760 6.291,257.929 5.984,257.159 5.854 C 256.389 5.724,255.760 5.510,255.760 5.379 C 255.760 5.125,253.089 4.417,251.002 4.117 C 250.313 4.018,249.750 3.814,249.750 3.664 C 249.750 3.515,248.773 3.287,247.579 3.160 C 246.386 3.032,245.409 2.794,245.409 2.632 C 245.409 2.470,245.025 2.337,244.555 2.337 C 243.986 2.337,243.781 2.468,243.942 2.729 C 244.075 2.944,243.825 2.869,243.387 2.562 C 242.943 2.251,241.956 2.003,241.161 2.003 C 240.376 2.003,239.733 1.873,239.733 1.713 C 239.733 1.553,238.954 1.405,238.003 1.384 C 237.051 1.362,236.187 1.211,236.083 1.048 C 235.662 0.390,216.042 -0.086,209.028 0.392 M224.040 11.720 C 224.040 11.919,225.089 12.035,226.628 12.005 C 229.886 11.942,234.838 12.340,235.058 12.682 C 235.150 12.825,236.465 13.051,237.980 13.183 C 239.495 13.316,240.735 13.564,240.735 13.735 C 240.735 13.905,241.270 14.008,241.924 13.964 C 242.578 13.920,243.217 14.048,243.343 14.247 C 243.469 14.447,244.512 14.719,245.659 14.851 C 246.807 14.983,247.746 15.215,247.746 15.368 C 247.746 15.520,248.573 15.748,249.583 15.874 C 250.593 16.000,251.419 16.237,251.419 16.399 C 251.419 16.562,251.795 16.694,252.254 16.694 C 252.713 16.694,253.088 16.836,253.088 17.008 C 253.088 17.180,253.765 17.423,254.591 17.547 C 255.417 17.671,256.093 17.912,256.093 18.083 C 256.093 18.253,256.281 18.362,256.511 18.324 C 257.172 18.215,258.765 18.740,258.765 19.068 C 258.765 19.232,259.140 19.366,259.599 19.366 C 260.058 19.366,260.434 19.516,260.434 19.699 C 260.434 19.883,260.622 20.034,260.851 20.035 C 261.081 20.037,261.720 20.274,262.270 20.563 C 262.821 20.852,263.741 21.114,264.313 21.145 C 264.963 21.181,265.298 21.351,265.204 21.599 C 265.112 21.839,265.526 22.085,266.249 22.220 C 266.907 22.344,267.446 22.578,267.446 22.742 C 267.446 22.905,267.671 23.038,267.947 23.038 C 268.222 23.038,268.447 23.177,268.447 23.346 C 268.447 23.515,268.898 23.752,269.449 23.873 C 270.000 23.994,270.451 24.219,270.451 24.374 C 270.451 24.528,270.902 24.754,271.452 24.875 C 272.003 24.996,272.454 25.209,272.454 25.350 C 272.454 25.490,273.015 25.891,273.701 26.241 C 274.387 26.592,275.149 27.066,275.394 27.295 C 275.640 27.525,276.043 27.713,276.290 27.713 C 276.537 27.713,276.789 27.826,276.850 27.963 C 277.033 28.374,279.392 30.050,279.788 30.050 C 279.990 30.050,280.236 30.262,280.335 30.521 C 280.434 30.780,280.881 31.083,281.326 31.195 C 281.772 31.307,282.137 31.546,282.137 31.726 C 282.137 31.906,282.299 32.053,282.496 32.053 C 282.694 32.053,283.307 32.504,283.858 33.055 C 284.409 33.606,285.008 34.057,285.190 34.057 C 285.372 34.057,286.017 34.583,286.623 35.225 C 287.229 35.868,287.883 36.394,288.077 36.394 C 288.271 36.394,288.873 36.838,289.416 37.381 C 289.959 37.923,290.504 38.266,290.628 38.142 C 290.752 38.018,290.754 38.175,290.633 38.491 C 290.512 38.807,290.563 39.065,290.748 39.065 C 291.050 39.065,294.287 42.167,296.542 44.617 C 297.027 45.144,297.809 45.876,298.280 46.244 C 298.750 46.611,299.141 47.167,299.150 47.479 C 299.158 47.791,299.367 48.167,299.614 48.314 C 299.860 48.461,300.345 49.032,300.691 49.583 C 301.037 50.134,301.511 50.704,301.745 50.851 C 301.979 50.998,302.170 51.303,302.170 51.529 C 302.170 51.755,302.463 52.150,302.820 52.408 C 303.178 52.665,303.408 52.976,303.333 53.099 C 303.257 53.221,303.460 53.607,303.785 53.956 C 304.109 54.305,304.475 54.854,304.597 55.175 C 304.720 55.497,304.975 55.760,305.165 55.760 C 305.354 55.760,305.509 56.067,305.509 56.443 C 305.509 56.818,305.871 57.488,306.314 57.931 C 306.757 58.373,307.222 59.203,307.348 59.775 C 307.492 60.432,307.735 60.754,308.007 60.650 C 308.305 60.535,308.382 60.699,308.257 61.179 C 308.141 61.621,308.205 61.794,308.430 61.654 C 308.654 61.516,308.721 61.682,308.611 62.103 C 308.515 62.471,308.580 62.771,308.755 62.771 C 308.930 62.771,309.354 63.598,309.698 64.608 C 310.041 65.618,310.439 66.444,310.583 66.444 C 310.726 66.444,310.940 67.045,311.057 67.780 C 311.175 68.514,311.447 69.115,311.662 69.115 C 311.889 69.115,312.053 69.621,312.053 70.317 C 312.053 71.073,312.252 71.629,312.590 71.818 C 312.937 72.012,313.060 72.374,312.938 72.839 C 312.809 73.333,312.871 73.485,313.136 73.321 C 313.351 73.188,313.535 73.276,313.550 73.520 C 313.565 73.760,313.637 74.407,313.710 74.958 C 313.783 75.509,313.869 76.185,313.900 76.461 C 313.932 76.736,314.085 77.045,314.240 77.148 C 314.396 77.250,314.604 78.297,314.702 79.473 C 314.801 80.649,315.039 81.709,315.233 81.828 C 315.426 81.948,315.595 82.742,315.608 83.594 C 315.621 84.445,315.732 85.142,315.854 85.142 C 315.976 85.142,316.245 87.388,316.450 90.132 C 316.831 95.222,316.396 105.175,315.793 105.175 C 315.646 105.175,315.526 105.927,315.526 106.845 C 315.526 107.763,315.393 108.514,315.230 108.514 C 315.068 108.514,314.828 109.378,314.697 110.434 C 314.567 111.490,314.345 112.504,314.204 112.688 C 314.063 112.871,313.849 113.667,313.729 114.455 C 313.608 115.244,313.363 116.183,313.182 116.542 C 313.002 116.901,312.707 117.489,312.527 117.849 C 312.347 118.208,312.102 119.109,311.984 119.852 C 311.865 120.594,311.644 121.202,311.492 121.202 C 311.340 121.202,311.112 121.755,310.985 122.432 C 310.858 123.108,310.400 123.989,309.968 124.390 C 309.536 124.790,309.182 125.289,309.182 125.497 C 309.182 125.706,309.032 125.876,308.848 125.876 C 308.664 125.876,308.514 126.093,308.514 126.357 C 308.514 126.979,303.936 131.553,303.314 131.553 C 303.052 131.553,302.838 131.702,302.838 131.884 C 302.838 132.101,287.400 132.245,258.013 132.301 L 213.189 132.387 213.274 71.972 C 213.323 36.948,213.485 11.478,213.658 11.371 C 214.197 11.035,224.040 11.367,224.040 11.720 M303.840 144.214 C 303.840 144.383,304.290 144.620,304.841 144.741 C 305.392 144.862,305.843 145.097,305.843 145.262 C 305.843 145.428,306.219 145.658,306.678 145.773 C 307.137 145.888,307.513 146.116,307.513 146.280 C 307.513 146.444,307.731 146.578,307.998 146.578 C 308.265 146.578,308.859 146.953,309.319 147.412 C 309.778 147.871,310.264 148.247,310.399 148.247 C 310.535 148.247,311.185 148.825,311.843 149.531 C 312.502 150.238,313.374 150.994,313.782 151.212 C 314.190 151.431,314.524 151.894,314.524 152.241 C 314.524 152.589,314.880 153.153,315.314 153.494 C 315.748 153.836,316.209 154.448,316.338 154.854 C 316.467 155.260,316.701 155.593,316.857 155.593 C 317.014 155.593,317.241 156.043,317.362 156.594 C 317.483 157.145,317.721 157.596,317.890 157.596 C 318.059 157.596,318.197 157.821,318.197 158.097 C 318.197 158.372,318.331 158.598,318.494 158.598 C 318.657 158.598,318.889 159.124,319.010 159.766 C 319.130 160.409,319.371 160.935,319.544 160.935 C 319.717 160.935,319.955 161.536,320.072 162.270 C 320.190 163.005,320.408 163.606,320.556 163.606 C 320.705 163.606,320.927 164.272,321.049 165.086 C 321.171 165.900,321.462 166.639,321.696 166.729 C 321.959 166.830,322.056 167.234,321.950 167.789 C 321.851 168.303,321.950 168.791,322.181 168.934 C 322.420 169.082,322.659 170.385,322.771 172.154 C 322.874 173.788,323.089 175.175,323.249 175.237 C 323.626 175.381,323.630 192.654,323.253 192.654 C 323.096 192.654,322.863 194.044,322.736 195.743 C 322.608 197.442,322.362 198.881,322.187 198.943 C 322.013 199.004,321.870 199.483,321.870 200.008 C 321.870 200.533,321.737 201.044,321.575 201.144 C 321.413 201.245,321.177 202.155,321.050 203.168 C 320.924 204.180,320.682 205.008,320.514 205.008 C 320.346 205.008,320.211 205.346,320.215 205.760 C 320.226 206.998,319.811 208.681,319.495 208.681 C 319.332 208.681,319.219 208.794,319.243 208.932 C 319.343 209.488,318.762 211.352,318.489 211.352 C 318.328 211.352,318.197 211.653,318.197 212.020 C 318.197 212.387,318.060 212.688,317.892 212.688 C 317.725 212.688,317.486 213.289,317.362 214.023 C 317.238 214.758,316.982 215.359,316.793 215.359 C 316.604 215.359,316.528 215.660,316.624 216.027 C 316.721 216.395,316.663 216.611,316.496 216.508 C 316.330 216.405,316.194 216.631,316.194 217.009 C 316.194 217.387,316.043 217.696,315.860 217.696 C 315.676 217.696,315.526 217.922,315.526 218.197 C 315.526 218.472,315.376 218.698,315.192 218.698 C 315.008 218.698,314.858 219.138,314.858 219.676 C 314.858 220.213,314.618 220.893,314.325 221.187 C 314.016 221.495,313.883 221.958,314.009 222.286 C 314.128 222.597,314.125 222.750,314.001 222.627 C 313.735 222.360,312.855 223.170,312.855 223.682 C 312.855 223.879,312.716 224.040,312.547 224.040 C 312.378 224.040,312.141 224.491,312.020 225.042 C 311.899 225.593,311.662 226.043,311.493 226.043 C 311.324 226.043,311.185 226.258,311.185 226.520 C 311.185 226.783,310.997 227.196,310.767 227.439 C 310.537 227.681,310.052 228.443,309.690 229.132 C 309.327 229.821,308.897 230.384,308.733 230.384 C 308.570 230.384,308.515 230.685,308.611 231.052 C 308.721 231.473,308.654 231.639,308.430 231.501 C 308.205 231.361,308.141 231.534,308.257 231.976 C 308.383 232.457,308.305 232.620,308.006 232.505 C 307.758 232.410,307.468 232.671,307.328 233.114 C 307.193 233.541,306.804 234.086,306.463 234.326 C 306.122 234.566,305.843 234.972,305.843 235.228 C 305.843 235.484,305.610 235.823,305.326 235.982 C 305.042 236.141,304.784 236.600,304.754 237.001 C 304.724 237.402,304.570 237.730,304.413 237.730 C 303.931 237.730,303.117 238.706,303.322 239.039 C 303.429 239.210,303.221 239.445,302.860 239.559 C 302.499 239.673,302.101 240.097,301.974 240.501 C 301.847 240.905,301.245 241.707,300.637 242.283 C 300.028 242.860,299.433 243.719,299.315 244.192 C 299.196 244.665,298.986 245.020,298.849 244.981 C 298.494 244.878,295.826 247.589,295.826 248.051 C 295.826 248.262,295.607 248.519,295.338 248.622 C 295.070 248.725,294.758 249.098,294.646 249.451 C 294.534 249.807,294.279 249.992,294.076 249.867 C 293.843 249.723,293.785 249.836,293.916 250.179 C 294.069 250.576,293.981 250.663,293.581 250.509 C 293.177 250.354,293.093 250.442,293.252 250.856 C 293.369 251.161,293.358 251.395,293.227 251.375 C 292.518 251.270,292.196 251.475,292.368 251.924 C 292.510 252.293,292.409 252.370,291.994 252.211 C 291.593 252.057,290.992 252.447,289.942 253.542 C 289.126 254.395,288.304 255.092,288.116 255.092 C 287.927 255.092,287.866 255.242,287.980 255.426 C 288.093 255.609,287.898 255.760,287.546 255.760 C 287.193 255.760,286.623 256.135,286.278 256.594 C 285.933 257.053,285.453 257.429,285.210 257.429 C 284.967 257.429,284.860 257.578,284.973 257.759 C 285.090 257.948,284.956 258.004,284.658 257.890 C 284.323 257.761,284.140 257.880,284.140 258.228 C 284.140 258.523,283.873 258.765,283.546 258.765 C 283.219 258.765,282.739 259.060,282.480 259.420 C 282.220 259.781,281.586 260.168,281.070 260.281 C 280.555 260.395,280.134 260.623,280.134 260.788 C 280.134 260.954,279.758 261.183,279.299 261.299 C 278.840 261.414,278.464 261.642,278.464 261.806 C 278.464 261.970,278.239 262.104,277.963 262.104 C 277.688 262.104,277.462 262.242,277.462 262.411 C 277.462 262.580,277.012 262.817,276.461 262.938 C 275.910 263.059,275.459 263.297,275.459 263.466 C 275.459 263.635,275.150 263.773,274.772 263.773 C 274.393 263.773,274.168 263.909,274.271 264.076 C 274.374 264.242,274.158 264.300,273.790 264.204 C 273.423 264.108,273.122 264.179,273.122 264.363 C 273.122 264.679,271.905 265.222,271.369 265.145 C 271.231 265.125,271.119 265.259,271.119 265.442 C 271.119 265.626,270.809 265.776,270.431 265.776 C 270.053 265.776,269.828 265.913,269.932 266.081 C 270.035 266.248,269.517 266.487,268.781 266.611 C 268.045 266.735,267.516 266.955,267.604 267.098 C 267.693 267.242,267.134 267.444,266.361 267.548 C 265.588 267.652,264.903 267.896,264.837 268.092 C 264.772 268.287,264.356 268.447,263.912 268.447 C 263.468 268.447,263.105 268.581,263.105 268.743 C 263.105 269.060,261.422 269.475,260.184 269.463 C 259.770 269.460,259.432 269.594,259.432 269.763 C 259.432 269.931,258.606 270.172,257.596 270.298 C 256.586 270.424,255.760 270.661,255.760 270.823 C 255.760 270.986,255.391 271.119,254.941 271.119 C 254.491 271.119,253.257 271.344,252.200 271.619 C 251.142 271.895,249.708 272.120,249.012 272.120 C 248.316 272.120,247.746 272.249,247.746 272.406 C 247.746 272.769,243.408 273.168,239.816 273.136 C 238.160 273.122,237.062 273.247,237.062 273.451 C 237.062 273.659,235.651 273.790,233.389 273.790 C 231.200 273.790,229.716 273.657,229.716 273.461 C 229.716 273.265,228.460 273.149,226.623 273.174 C 224.921 273.197,223.199 273.112,222.795 272.984 C 222.392 272.856,221.738 272.925,221.341 273.137 C 220.804 273.424,220.681 273.425,220.857 273.140 C 221.023 272.871,220.670 272.782,219.668 272.842 C 218.786 272.894,218.192 272.772,218.109 272.523 C 218.030 272.286,217.332 272.118,216.416 272.116 C 215.559 272.113,214.520 272.020,214.107 271.910 L 213.356 271.708 213.356 207.807 L 213.356 143.907 258.598 143.907 C 285.933 143.907,303.840 144.028,303.840 144.214 M202.003 315.888 L 202.003 333.612 212.744 333.501 C 220.959 333.415,223.517 333.291,223.623 332.972 C 223.699 332.742,224.125 332.554,224.569 332.554 C 225.013 332.554,225.376 332.420,225.376 332.257 C 225.376 332.093,225.751 331.865,226.210 331.749 C 226.669 331.634,227.045 331.326,227.045 331.065 C 227.045 330.804,227.219 330.483,227.431 330.352 C 227.692 330.191,227.725 330.265,227.535 330.583 C 227.380 330.841,227.654 330.676,228.145 330.217 C 228.636 329.758,229.039 329.132,229.043 328.826 C 229.046 328.520,229.236 328.207,229.466 328.130 C 229.769 328.029,229.868 327.039,229.829 324.513 C 229.760 320.135,229.735 319.866,229.398 319.866 C 229.245 319.866,229.027 319.491,228.911 319.032 C 228.796 318.573,228.479 318.197,228.207 318.197 C 227.935 318.197,227.706 318.009,227.697 317.780 C 227.689 317.550,227.120 316.918,226.434 316.375 L 225.186 315.389 226.492 314.159 C 227.368 313.333,227.711 312.779,227.535 312.474 C 227.390 312.224,227.389 312.126,227.532 312.255 C 227.675 312.384,228.037 312.244,228.337 311.944 C 228.959 311.323,229.128 304.327,228.531 303.903 C 228.353 303.776,227.919 303.122,227.566 302.450 C 227.213 301.777,226.355 300.876,225.658 300.446 C 224.962 300.017,224.388 299.553,224.383 299.416 C 224.378 299.278,223.998 299.165,223.539 299.165 C 223.080 299.165,222.705 298.998,222.705 298.792 C 222.705 298.575,222.357 298.486,221.870 298.579 C 221.411 298.667,221.035 298.609,221.035 298.451 C 221.035 298.293,216.753 298.164,211.519 298.164 L 202.003 298.164 202.003 315.888 M289.149 298.517 C 289.149 298.712,288.997 298.777,288.812 298.663 C 288.149 298.253,287.516 299.392,287.581 300.875 C 287.633 302.037,287.801 302.405,288.397 302.667 C 288.811 302.848,289.149 303.111,289.149 303.251 C 289.149 303.391,289.599 303.506,290.150 303.506 C 290.701 303.506,291.152 303.356,291.152 303.172 C 291.152 302.988,291.377 302.838,291.653 302.838 C 292.485 302.838,292.355 298.963,291.508 298.509 C 290.666 298.059,289.149 298.064,289.149 298.517 M218.949 301.419 C 219.025 301.649,219.363 301.836,219.700 301.836 C 220.959 301.836,224.374 304.237,224.374 305.122 C 224.374 305.304,224.562 305.516,224.791 305.593 C 225.070 305.685,225.217 306.521,225.232 308.107 C 225.245 309.414,225.131 310.406,224.979 310.312 C 224.827 310.218,224.603 310.402,224.481 310.721 C 224.103 311.704,223.068 312.532,221.943 312.751 C 221.352 312.866,220.761 313.124,220.630 313.325 C 220.474 313.564,217.866 313.729,213.034 313.806 L 205.676 313.922 205.676 307.358 L 205.676 300.795 212.243 300.898 C 217.125 300.975,218.846 301.109,218.949 301.419 M270.596 307.882 C 270.494 308.046,269.819 308.180,269.095 308.180 C 268.372 308.180,267.780 308.314,267.780 308.478 C 267.780 308.642,267.385 308.875,266.902 308.996 C 264.737 309.539,263.104 312.167,263.110 315.097 C 263.116 318.019,263.364 318.965,264.057 318.699 C 264.349 318.587,264.481 318.602,264.351 318.732 C 264.000 319.083,266.002 320.868,266.747 320.868 C 267.101 320.868,267.441 321.022,267.504 321.210 C 267.567 321.397,268.578 321.612,269.752 321.687 C 270.925 321.763,271.976 321.965,272.086 322.137 C 272.197 322.309,273.452 322.558,274.875 322.689 C 276.298 322.821,277.462 323.066,277.462 323.234 C 277.462 323.402,277.624 323.539,277.822 323.539 C 279.498 323.539,280.906 327.155,279.699 328.362 C 279.387 328.674,279.132 329.052,279.132 329.202 C 279.132 329.352,278.617 329.572,277.988 329.690 C 277.358 329.808,276.786 330.075,276.717 330.283 C 276.560 330.753,270.099 330.728,269.807 330.256 C 269.698 330.080,269.198 329.833,268.694 329.706 C 268.191 329.580,267.780 329.343,267.780 329.179 C 267.780 329.015,267.454 328.881,267.056 328.881 C 266.658 328.881,266.424 328.791,266.535 328.679 C 267.101 328.113,264.940 326.835,263.783 327.052 C 261.782 327.428,261.529 330.885,263.503 330.885 C 263.701 330.885,264.190 331.223,264.590 331.636 C 264.989 332.049,265.627 332.565,266.008 332.783 C 268.412 334.159,280.134 334.060,280.134 332.664 C 280.134 332.398,280.278 332.270,280.455 332.380 C 280.852 332.625,282.229 331.303,281.986 330.910 C 281.889 330.754,282.072 330.647,282.391 330.672 C 282.786 330.703,282.964 330.484,282.947 329.986 C 282.934 329.584,283.084 329.283,283.281 329.319 C 283.703 329.394,283.981 323.871,283.570 323.568 C 283.425 323.460,283.145 323.082,282.949 322.727 C 282.753 322.372,282.303 321.921,281.948 321.725 C 281.593 321.529,281.192 321.219,281.057 321.035 C 280.922 320.851,280.809 320.832,280.806 320.992 C 280.804 321.153,280.578 321.098,280.305 320.872 C 280.032 320.645,279.581 320.547,279.303 320.653 C 278.994 320.772,278.798 320.657,278.798 320.357 C 278.798 320.035,278.455 319.866,277.796 319.866 C 277.245 319.866,276.795 319.734,276.795 319.572 C 276.795 319.410,275.518 319.171,273.957 319.041 C 272.396 318.911,271.119 318.687,271.119 318.544 C 271.119 318.400,270.518 318.186,269.783 318.069 C 269.048 317.951,268.447 317.723,268.447 317.561 C 268.447 317.400,268.072 317.173,267.613 317.058 C 267.074 316.923,266.778 316.614,266.778 316.187 C 266.778 315.824,266.628 315.526,266.444 315.526 C 266.260 315.526,266.110 315.301,266.110 315.025 C 266.110 314.750,266.225 314.524,266.365 314.524 C 266.505 314.524,266.768 314.198,266.949 313.800 C 267.130 313.402,267.579 312.914,267.947 312.715 C 268.314 312.516,268.721 312.204,268.852 312.020 C 269.258 311.451,277.796 311.477,277.796 312.048 C 277.796 312.308,278.102 312.521,278.475 312.521 C 278.848 312.521,279.239 312.746,279.345 313.022 C 279.456 313.310,279.955 313.523,280.523 313.523 C 281.065 313.523,281.426 313.388,281.324 313.224 C 281.223 313.060,281.514 312.832,281.972 312.717 C 282.936 312.475,283.208 310.851,282.284 310.851 C 281.998 310.851,281.854 310.706,281.964 310.527 C 282.074 310.349,281.782 310.107,281.316 309.990 C 280.849 309.873,280.467 309.655,280.467 309.506 C 280.467 309.357,280.017 309.136,279.466 309.015 C 278.915 308.894,278.464 308.657,278.464 308.488 C 278.464 308.319,277.872 308.180,277.148 308.180 C 276.425 308.180,275.749 308.046,275.648 307.882 C 275.546 307.717,274.410 307.583,273.122 307.583 C 271.834 307.583,270.698 307.717,270.596 307.882 M307.324 307.881 C 307.223 308.046,306.622 308.180,305.990 308.180 C 305.358 308.180,304.841 308.331,304.841 308.514 C 304.841 308.698,304.552 308.848,304.197 308.848 C 303.843 308.848,303.349 309.036,303.099 309.265 C 301.691 310.560,301.169 310.583,301.169 309.352 L 301.169 308.180 299.332 308.180 L 297.496 308.180 297.496 320.868 L 297.496 333.556 299.332 333.556 L 301.169 333.556 301.169 325.538 C 301.169 320.127,301.294 317.277,301.554 316.773 C 301.767 316.363,302.069 315.801,302.227 315.526 C 302.385 315.250,302.677 314.612,302.875 314.107 C 303.074 313.602,303.373 313.273,303.538 313.376 C 303.704 313.478,303.840 313.332,303.840 313.052 C 303.840 312.757,304.033 312.616,304.298 312.717 C 304.549 312.814,305.012 312.637,305.325 312.323 C 305.906 311.742,312.312 311.047,311.969 311.602 C 311.884 311.740,312.182 311.853,312.632 311.853 C 313.083 311.853,313.538 312.078,313.643 312.354 C 313.749 312.629,314.001 312.855,314.204 312.855 C 314.675 312.855,315.526 313.699,315.526 314.166 C 315.526 314.363,315.673 314.524,315.853 314.524 C 316.034 314.524,316.282 314.937,316.406 315.442 C 316.529 315.947,316.795 316.468,316.996 316.599 C 317.242 316.758,317.386 319.555,317.435 325.113 L 317.507 333.389 319.104 333.487 L 320.701 333.584 320.701 325.056 C 320.701 320.365,320.608 316.527,320.494 316.527 C 320.380 316.527,320.186 315.774,320.064 314.853 C 319.914 313.717,319.631 313.048,319.187 312.770 C 318.826 312.544,318.531 312.194,318.531 311.992 C 318.531 311.014,316.921 309.720,316.299 310.197 C 315.966 310.453,315.800 310.535,315.931 310.379 C 316.361 309.869,315.526 308.848,314.679 308.848 C 314.227 308.848,313.856 308.687,313.856 308.490 C 313.856 308.294,313.518 308.173,313.105 308.223 C 312.692 308.273,312.053 308.154,311.686 307.958 C 310.870 307.525,307.581 307.466,307.324 307.881 M335.084 308.264 C 334.777 308.677,334.618 308.827,334.729 308.598 C 334.868 308.311,334.612 308.180,333.910 308.180 C 333.348 308.180,332.888 308.331,332.888 308.514 C 332.888 308.698,332.598 308.848,332.244 308.848 C 331.890 308.848,331.395 309.054,331.144 309.305 C 330.892 309.556,330.356 309.867,329.951 309.995 C 329.546 310.124,329.215 310.364,329.215 310.529 C 329.215 310.945,327.311 312.855,326.896 312.855 C 326.709 312.855,326.463 313.230,326.347 313.689 C 326.232 314.149,325.995 314.524,325.819 314.524 C 325.644 314.524,325.544 314.787,325.597 315.109 C 325.650 315.430,325.551 315.918,325.377 316.194 C 324.330 317.854,324.467 325.081,325.571 326.411 C 325.784 326.668,325.827 326.880,325.667 326.883 C 325.507 326.886,325.590 327.024,325.852 327.190 C 326.114 327.355,326.376 327.805,326.434 328.190 C 326.553 328.967,329.239 331.886,329.836 331.886 C 330.046 331.886,330.217 332.037,330.217 332.220 C 330.217 332.404,330.505 332.554,330.857 332.554 C 331.209 332.554,331.548 332.707,331.610 332.894 C 331.672 333.080,332.248 333.318,332.890 333.421 C 334.711 333.715,340.256 333.862,340.103 333.613 C 340.028 333.490,340.665 333.385,341.519 333.380 C 343.041 333.372,345.242 332.638,345.242 332.139 C 345.242 332.000,345.430 331.886,345.659 331.885 C 346.518 331.882,348.247 329.876,348.247 328.883 C 348.247 326.934,346.185 326.308,344.893 327.866 C 344.442 328.409,343.802 328.860,343.469 328.867 C 343.137 328.875,342.948 329.015,343.049 329.179 C 343.150 329.342,342.671 329.581,341.984 329.710 C 341.298 329.839,340.644 330.094,340.530 330.277 C 340.239 330.748,335.660 330.717,335.086 330.240 C 334.826 330.024,334.089 329.818,333.449 329.782 C 332.808 329.746,332.352 329.606,332.436 329.471 C 332.519 329.337,331.828 328.491,330.901 327.593 C 329.857 326.582,329.135 325.560,329.005 324.909 C 328.890 324.332,328.664 323.778,328.504 323.680 C 326.898 322.686,328.261 322.538,338.982 322.535 L 349.750 322.532 350.167 321.634 C 350.670 320.550,350.704 319.646,350.250 319.366 C 350.067 319.252,349.917 318.342,349.917 317.343 C 349.917 316.343,349.783 315.526,349.620 315.526 C 349.457 315.526,349.229 315.027,349.115 314.417 C 348.891 313.225,345.931 309.850,345.110 309.850 C 344.855 309.850,344.559 309.624,344.454 309.349 C 344.348 309.073,343.881 308.848,343.416 308.848 C 342.951 308.848,342.571 308.698,342.571 308.514 C 342.571 308.331,341.970 308.180,341.235 308.180 C 340.470 308.180,339.900 308.020,339.900 307.806 C 339.900 307.561,339.703 307.590,339.335 307.889 C 338.951 308.200,338.850 308.213,339.021 307.930 C 339.533 307.078,335.724 307.401,335.084 308.264 M362.544 307.861 C 362.474 308.071,361.858 308.258,361.175 308.277 C 360.492 308.297,359.933 308.416,359.933 308.543 C 359.933 308.670,359.443 308.866,358.845 308.978 C 357.640 309.204,355.927 310.606,355.927 311.366 C 355.927 311.634,355.814 311.854,355.676 311.856 C 355.538 311.857,355.238 312.263,355.008 312.757 C 354.511 313.827,354.448 317.195,354.925 317.195 C 355.109 317.195,355.259 317.421,355.259 317.696 C 355.259 317.972,355.393 318.197,355.556 318.197 C 355.720 318.197,355.939 318.537,356.044 318.952 C 356.275 319.875,358.075 320.995,358.955 320.765 C 359.344 320.664,359.599 320.766,359.599 321.025 C 359.599 321.491,361.038 321.870,362.813 321.870 C 363.433 321.870,363.940 322.018,363.940 322.200 C 363.940 322.382,364.278 322.518,364.691 322.503 C 366.183 322.448,368.703 322.808,368.907 323.104 C 369.021 323.271,369.679 323.669,370.367 323.990 C 371.056 324.310,371.619 324.791,371.619 325.057 C 371.619 325.324,371.770 325.543,371.953 325.543 C 372.137 325.543,372.287 325.996,372.287 326.550 C 372.287 327.698,370.317 329.883,369.281 329.883 C 368.945 329.883,368.616 330.046,368.549 330.245 C 368.403 330.684,362.239 330.701,361.958 330.262 C 361.855 330.100,361.310 329.868,360.749 329.746 C 360.188 329.624,359.516 329.230,359.257 328.869 C 358.997 328.509,358.522 328.214,358.202 328.214 C 357.882 328.214,357.459 327.913,357.262 327.546 C 356.753 326.595,355.442 326.709,354.438 327.793 C 353.551 328.749,353.375 329.215,353.901 329.215 C 354.072 329.215,354.311 329.527,354.432 329.907 C 354.580 330.375,354.828 330.532,355.195 330.390 C 355.494 330.276,355.643 330.277,355.526 330.395 C 355.239 330.682,356.306 331.897,356.656 331.681 C 356.808 331.587,357.023 331.745,357.133 332.032 C 357.243 332.319,357.618 332.554,357.966 332.554 C 358.313 332.554,358.598 332.693,358.598 332.862 C 358.598 334.272,371.493 333.949,372.388 332.516 C 372.605 332.170,372.948 331.886,373.151 331.886 C 373.983 331.886,375.023 330.539,375.198 329.234 C 375.298 328.489,375.511 327.880,375.670 327.880 C 375.829 327.880,375.960 327.279,375.960 326.544 C 375.960 325.810,375.810 325.209,375.626 325.209 C 375.442 325.209,375.292 324.845,375.292 324.401 C 375.292 323.215,374.956 322.538,374.366 322.538 C 374.080 322.538,373.933 322.450,374.040 322.343 C 374.335 322.048,372.978 320.814,372.609 321.043 C 372.432 321.152,372.287 321.082,372.287 320.888 C 372.287 320.693,371.912 320.534,371.452 320.534 C 370.993 320.534,370.618 320.366,370.618 320.161 C 370.618 319.956,370.327 319.865,369.972 319.958 C 369.616 320.050,369.035 319.923,368.679 319.674 C 368.324 319.425,366.812 319.120,365.319 318.995 C 363.826 318.871,362.604 318.660,362.604 318.527 C 362.604 318.393,362.104 318.203,361.491 318.104 C 358.304 317.587,357.063 312.521,360.123 312.521 C 360.355 312.521,360.608 312.333,360.684 312.104 C 360.875 311.533,369.196 311.508,369.548 312.077 C 369.681 312.292,370.201 312.571,370.705 312.698 C 371.208 312.824,371.619 313.061,371.619 313.225 C 371.619 313.802,373.294 313.514,374.121 312.795 C 375.193 311.863,375.176 311.397,374.040 310.545 C 373.535 310.167,372.929 309.695,372.694 309.497 C 372.459 309.299,371.746 309.052,371.108 308.949 C 370.471 308.845,369.950 308.630,369.950 308.471 C 369.950 308.311,369.349 308.180,368.614 308.180 C 367.880 308.180,367.279 308.053,367.279 307.897 C 367.279 307.449,362.693 307.414,362.544 307.861 M387.116 307.970 C 387.023 308.213,386.454 308.315,385.636 308.237 C 384.812 308.158,384.307 308.250,384.307 308.479 C 384.307 308.682,384.073 308.848,383.787 308.848 C 383.500 308.848,383.358 308.997,383.470 309.178 C 383.584 309.363,383.460 309.426,383.187 309.321 C 382.622 309.104,381.302 310.124,381.302 310.778 C 381.302 311.024,381.168 311.142,381.003 311.040 C 380.641 310.816,380.221 311.788,380.491 312.225 C 380.597 312.397,380.485 312.496,380.242 312.446 C 379.586 312.310,379.571 317.435,380.223 318.445 C 380.490 318.856,380.841 319.110,381.005 319.009 C 381.168 318.908,381.302 319.041,381.302 319.305 C 381.302 319.925,382.029 320.520,383.020 320.710 C 383.451 320.794,383.852 321.005,383.911 321.181 C 383.969 321.356,385.059 321.602,386.332 321.728 C 387.606 321.853,388.648 322.101,388.648 322.278 C 388.648 322.458,389.439 322.549,390.453 322.485 C 391.446 322.422,392.188 322.483,392.103 322.621 C 392.017 322.759,392.257 322.871,392.635 322.871 C 393.013 322.871,393.322 323.022,393.322 323.205 C 393.322 323.389,393.634 323.539,394.016 323.539 C 395.983 323.539,397.552 327.037,396.194 328.395 C 395.900 328.689,395.659 329.052,395.659 329.202 C 395.659 329.352,395.144 329.572,394.515 329.690 C 393.886 329.808,393.319 330.061,393.255 330.251 C 393.109 330.691,386.958 330.720,386.679 330.283 C 386.568 330.109,385.989 329.861,385.392 329.732 C 384.795 329.602,384.307 329.358,384.307 329.189 C 384.307 329.020,384.137 328.881,383.928 328.881 C 383.720 328.881,383.191 328.495,382.754 328.024 C 381.983 327.192,380.018 326.484,380.458 327.197 C 380.583 327.399,380.457 327.457,380.147 327.338 C 379.423 327.060,378.631 327.802,378.631 328.758 C 378.631 329.592,380.048 331.285,381.052 331.652 C 381.373 331.769,381.636 332.020,381.636 332.210 C 381.636 332.399,381.924 332.554,382.276 332.554 C 382.628 332.554,382.966 332.696,383.027 332.870 C 383.208 333.382,387.210 333.816,390.985 333.732 C 395.175 333.640,396.779 333.344,396.535 332.707 C 396.429 332.430,396.532 332.320,396.801 332.423 C 397.043 332.516,397.822 332.044,398.532 331.375 L 399.822 330.158 399.919 326.932 C 400.022 323.513,399.720 322.407,398.497 321.736 C 398.130 321.534,397.741 321.249,397.632 321.101 C 397.524 320.954,397.005 320.788,396.480 320.732 C 395.954 320.676,395.467 320.458,395.397 320.248 C 395.327 320.038,394.832 319.866,394.296 319.866 C 393.760 319.866,393.322 319.734,393.322 319.572 C 393.322 319.410,392.045 319.171,390.484 319.041 C 388.923 318.911,387.646 318.687,387.646 318.544 C 387.646 318.400,387.045 318.186,386.311 318.069 C 385.576 317.951,384.975 317.689,384.975 317.486 C 384.975 317.283,384.680 317.195,384.319 317.289 C 383.958 317.383,383.673 317.363,383.687 317.245 C 383.743 316.751,383.206 315.526,382.933 315.526 C 382.770 315.526,382.638 315.301,382.638 315.025 C 382.638 314.750,382.788 314.524,382.972 314.524 C 383.155 314.524,383.306 314.376,383.306 314.194 C 383.306 313.701,384.397 312.521,384.854 312.521 C 385.074 312.521,385.312 312.345,385.384 312.130 C 385.529 311.694,392.989 311.177,392.989 311.603 C 392.988 311.740,393.191 311.853,393.438 311.853 C 394.107 311.853,395.993 312.857,395.993 313.213 C 395.993 313.383,396.453 313.523,397.015 313.523 C 397.576 313.523,397.953 313.388,397.852 313.224 C 397.750 313.060,398.042 312.832,398.500 312.717 C 399.956 312.352,399.036 309.850,397.445 309.850 C 397.197 309.850,396.995 309.711,396.995 309.542 C 396.995 309.373,396.544 309.136,395.993 309.015 C 395.442 308.894,394.992 308.661,394.992 308.498 C 394.992 308.334,394.473 308.220,393.838 308.244 C 393.204 308.268,392.490 308.130,392.252 307.937 C 391.644 307.444,387.307 307.472,387.116 307.970 M235.111 317.875 C 235.181 323.823,235.354 327.663,235.559 327.809 C 235.743 327.940,236.184 328.569,236.541 329.207 C 237.263 330.501,239.354 332.550,239.955 332.553 C 240.170 332.554,240.395 332.702,240.456 332.882 C 240.918 334.241,251.197 333.934,252.720 332.515 C 253.091 332.169,253.556 331.886,253.753 331.886 C 253.950 331.886,254.257 331.548,254.435 331.135 C 254.694 330.534,254.741 330.700,254.672 331.970 L 254.586 333.556 256.508 333.556 L 258.431 333.556 258.431 320.868 L 258.431 308.180 256.427 308.180 C 255.240 308.180,254.424 308.324,254.424 308.534 C 254.424 308.728,254.598 308.780,254.810 308.649 C 255.027 308.515,255.105 308.556,254.988 308.746 C 254.874 308.930,254.765 312.405,254.745 316.468 C 254.711 323.588,254.680 323.913,253.900 325.450 C 253.455 326.327,253.091 327.158,253.090 327.295 C 253.087 327.742,251.767 328.881,251.252 328.881 C 250.977 328.881,250.769 328.994,250.791 329.132 C 250.907 329.870,250.685 330.137,250.083 329.980 C 249.710 329.882,249.416 329.970,249.416 330.178 C 249.416 330.425,248.401 330.551,246.411 330.551 C 244.758 330.551,243.406 330.417,243.406 330.253 C 243.406 330.089,243.020 329.859,242.548 329.740 C 241.666 329.519,239.733 327.775,239.733 327.201 C 239.733 327.023,239.601 326.878,239.441 326.878 C 238.861 326.878,238.703 324.566,238.726 316.444 L 238.750 308.180 236.874 308.180 L 234.998 308.180 235.111 317.875 M287.813 320.868 L 287.813 333.556 289.816 333.556 L 291.820 333.556 291.820 320.868 L 291.820 308.180 289.816 308.180 L 287.813 308.180 287.813 320.868 M341.820 312.104 C 341.896 312.333,342.201 312.521,342.496 312.521 C 343.141 312.521,345.576 315.051,345.576 315.721 C 345.576 315.981,345.726 316.194,345.910 316.194 C 346.093 316.194,346.244 316.476,346.244 316.821 C 346.244 317.165,346.460 317.627,346.725 317.847 C 346.989 318.066,347.123 318.460,347.023 318.722 C 346.741 319.456,328.214 319.432,328.214 318.698 C 328.214 318.422,328.364 318.197,328.548 318.197 C 328.731 318.197,328.881 317.733,328.881 317.166 C 328.881 316.359,329.274 315.753,330.697 314.363 C 331.696 313.388,332.432 312.510,332.334 312.411 C 332.235 312.313,332.470 312.315,332.855 312.415 C 333.241 312.516,333.556 312.442,333.556 312.250 C 333.556 311.440,341.552 311.298,341.820 312.104 M219.171 317.485 C 219.270 317.645,220.105 317.875,221.028 317.998 C 221.950 318.120,222.705 318.365,222.705 318.542 C 222.705 318.720,222.963 318.865,223.278 318.865 C 223.912 318.865,225.376 320.396,225.376 321.059 C 225.376 321.291,225.563 321.543,225.793 321.620 C 227.352 322.141,225.674 328.214,223.972 328.214 C 223.804 328.214,223.760 328.364,223.873 328.548 C 223.987 328.731,223.783 328.881,223.420 328.881 C 223.057 328.881,222.698 329.069,222.621 329.299 C 222.516 329.614,220.423 329.744,214.079 329.830 L 205.676 329.943 205.676 323.569 L 205.676 317.195 212.334 317.195 C 215.996 317.195,219.073 317.326,219.171 317.485 " stroke="none" fill="#5c5454" fill-rule="evenodd"></path><path id="path3" d="" stroke="none" fill="#48a8bc" fill-rule="evenodd"></path><path id="path4" d="M254.515 331.886 C 254.515 332.713,254.580 333.051,254.660 332.638 C 254.739 332.225,254.739 331.548,254.660 331.135 C 254.580 330.722,254.515 331.060,254.515 331.886 " stroke="none" fill="#485478" fill-rule="evenodd"></path></g></svg>