<?xml version="1.0" standalone="no"?>
<!DOCTYPE svg PUBLIC "-//W3C//DTD SVG 20010904//EN"
 "http://www.w3.org/TR/2001/REC-SVG-20010904/DTD/svg10.dtd">
<svg version="1.0" xmlns="http://www.w3.org/2000/svg"
 width="128.000000pt" height="128.000000pt" viewBox="0 0 128.000000 128.000000"
 preserveAspectRatio="xMidYMid meet">

<g transform="translate(0.000000,128.000000) scale(0.100000,-0.100000)"
fill="#000000" stroke="none">
<path d="M240 971 c-50 -16 -110 -52 -143 -85 -123 -123 -123 -369 0 -492 59
-59 126 -87 224 -92 194 -10 316 79 348 252 14 74 14 126 1 126 -5 0 -10 -7
-10 -15 0 -13 -21 -15 -132 -15 l-132 0 34 38 c19 20 89 93 155 160 66 68 113
122 103 120 -19 -4 -318 -311 -318 -327 0 -7 47 -11 146 -11 l147 0 -6 -50
c-22 -184 -179 -294 -369 -260 -113 21 -190 76 -235 168 -24 50 -27 69 -27
152 0 83 3 102 27 152 45 92 128 151 238 169 71 11 173 -3 230 -31 43 -22 49
-24 49 -11 0 5 -24 19 -52 32 -42 18 -75 23 -153 26 -55 1 -111 -1 -125 -6z"/>
<path d="M730 639 l0 -331 208 4 c172 3 214 7 250 22 60 26 87 67 87 136 0 77
-26 118 -94 151 -49 24 -51 27 -28 33 34 8 83 67 98 116 24 79 -26 167 -107
189 -22 6 -122 11 -226 11 l-188 0 0 -331z m437 294 c47 -22 73 -66 73 -124 0
-60 -31 -107 -90 -136 -41 -21 -57 -23 -227 -23 l-183 0 0 150 0 150 196 0
c162 0 202 -3 231 -17z m20 -329 c78 -58 98 -155 43 -217 -43 -49 -82 -57
-299 -57 l-191 0 0 151 0 150 209 -3 c194 -3 212 -5 238 -24z"/>
</g>
</svg>
